<svg width="402" height="395" viewBox="0 0 402 395" fill="none" xmlns="http://www.w3.org/2000/svg">
<path d="M400.913 197.345C400.913 305.558 311.43 393.318 201 393.318C90.5704 393.318 1.08649 305.558 1.08649 197.345C1.08649 89.1331 90.5704 1.37311 201 1.37311C311.43 1.37311 400.913 89.1331 400.913 197.345Z" stroke="#FCF6F4" stroke-width="2.17297"/>
<path d="M348.379 197.345C348.379 277.113 282.416 341.814 201 341.814C119.584 341.814 53.6207 277.113 53.6207 197.345C53.6207 117.578 119.584 52.877 201 52.877C282.416 52.877 348.379 117.578 348.379 197.345Z" stroke="#FCF6F4" stroke-width="2.17297"/>
<path d="M294.132 197.345C294.132 247.74 252.456 288.63 201 288.63C149.544 288.63 107.868 247.74 107.868 197.345C107.868 146.95 149.544 106.061 201 106.061C252.456 106.061 294.132 146.95 294.132 197.345Z" stroke="#FCF6F4" stroke-width="2.17297"/>
</svg>
