<svg width="233" height="230" viewBox="0 0 233 230" fill="none" xmlns="http://www.w3.org/2000/svg">
<path d="M232.37 115.145C232.37 177.865 180.505 228.731 116.5 228.731C52.4948 228.731 0.62973 177.865 0.62973 115.145C0.62973 52.4253 52.4948 1.55942 116.5 1.55942C180.505 1.55942 232.37 52.4253 232.37 115.145Z" stroke="#FCF6F4" stroke-width="1.25946"/>
<path d="M201.921 115.145C201.921 161.379 163.689 198.879 116.5 198.879C69.3112 198.879 31.0786 161.379 31.0786 115.145C31.0786 68.912 69.3112 31.4112 116.5 31.4112C163.689 31.4112 201.921 68.912 201.921 115.145Z" stroke="#FCF6F4" stroke-width="1.25946"/>
<path d="M170.48 115.145C170.48 144.354 146.324 168.054 116.5 168.054C86.6761 168.054 62.5204 144.354 62.5204 115.145C62.5204 85.9362 86.6761 62.2364 116.5 62.2364C146.324 62.2364 170.48 85.9362 170.48 115.145Z" stroke="#FCF6F4" stroke-width="1.25946"/>
</svg>
