<svg width="133" height="63" viewBox="0 0 133 63" fill="none" xmlns="http://www.w3.org/2000/svg">
<g clip-path="url(#clip0_11_1094)">
<path d="M10.1904 61.5752C12.7253 61.5752 14.8085 60.9677 16.4475 59.7527C18.0864 58.5377 19.2882 56.9538 20.0458 55.0084C20.8033 53.0629 21.1821 50.9511 21.1821 48.6802C21.1821 46.4093 20.8106 44.3336 20.0604 42.3881C19.3174 40.4427 18.1301 38.866 16.5057 37.6655C14.8814 36.4649 12.8273 35.8574 10.3507 35.8574H6.07493V61.5752H10.1904ZM1.2383 62.6095V34.8304H10.9116C14.3496 34.8304 17.2196 35.4886 19.5213 36.7976C21.8231 38.1066 23.5276 39.8135 24.6202 41.918C25.7128 44.0226 26.2591 46.3008 26.2591 48.767C26.2591 51.2332 25.7128 53.4679 24.6202 55.5725C23.5276 57.6771 21.8304 59.3766 19.5213 60.6712C17.2196 61.9658 14.3424 62.6167 10.9116 62.6167H1.2383V62.6095Z" fill="#F5EFD5"/>
<path d="M40.4048 61.4161C41.4974 61.4161 42.5973 61.1268 43.7045 60.541C44.8117 59.9624 45.8023 59.1886 46.6837 58.2412V53.2003H40.8855C38.9917 53.2003 37.6368 53.5402 36.8065 54.2128C35.9834 54.8854 35.5682 55.8617 35.5682 57.1274C35.5682 58.4798 35.9979 59.5285 36.8647 60.2806C37.7315 61.0328 38.9116 61.4089 40.4048 61.4089M38.205 62.9927C35.8887 62.9927 34.0604 62.4575 32.7274 61.3872C31.3944 60.3168 30.7315 58.8776 30.7315 57.084C30.7315 55.4712 31.409 54.2562 32.7711 53.4534C34.1332 52.6434 36.0853 52.2456 38.6493 52.2456H46.6837V51.0523C46.6837 48.5138 46.2102 46.5828 45.2633 45.2593C44.3163 43.9358 42.7357 43.2632 40.5286 43.2343C38.3725 43.2343 36.6244 43.7911 35.2914 44.8977C36.1727 44.8977 36.872 45.1725 37.3892 45.7149C37.9063 46.2573 38.1686 46.9227 38.1686 47.7183C38.1686 48.5138 37.8991 49.1936 37.3528 49.6854C36.8065 50.1772 36.1363 50.4231 35.3351 50.4231C34.5338 50.4231 33.9001 50.1627 33.3538 49.6493C32.8075 49.1358 32.538 48.4632 32.538 47.6459C32.538 46.3731 33.3101 45.2231 34.8543 44.1962C35.7066 43.5886 36.7045 43.1402 37.8554 42.8437C38.999 42.5544 40.1571 42.4098 41.3299 42.4098C44.2362 42.4098 46.64 43.1475 48.5411 44.6156C50.4495 46.0838 51.3965 48.3402 51.3965 51.385V62.6167H46.8803V59.2826C45.7877 60.3674 44.4912 61.257 42.9833 61.9585C41.4755 62.66 39.8876 63.0072 38.205 63.0072V62.9927Z" fill="#F5EFD5"/>
<path d="M57.1582 62.6094V43.162L61.718 42.2869V45.78C62.8106 44.6952 64.0489 43.8563 65.4329 43.2632C66.8169 42.6702 68.2445 42.3737 69.7086 42.3737C74.2903 42.3737 76.5848 44.782 76.5848 49.5987V62.6167H71.8283V50.3508C71.8283 48.9767 71.7409 47.834 71.5661 46.9372C71.3913 46.0404 71.0271 45.3099 70.4662 44.7531C69.9053 44.1962 69.0822 43.9213 67.9896 43.9213C66.897 43.9213 65.8481 44.16 64.7555 44.6373C63.6629 45.1147 62.7159 45.8162 61.9147 46.7419V62.6167H57.1582V62.6094Z" fill="#F5EFD5"/>
<path fill-rule="evenodd" clip-rule="evenodd" d="M87.6493 62.6095H82.9001V43.162L87.6493 42.2507V62.6095Z" fill="#F5EFD5"/>
<path d="M120.624 62.9999C118.039 62.9999 115.62 62.4358 113.369 61.3148C111.119 60.1938 109.305 58.5449 107.935 56.3752C106.566 54.2055 105.874 51.6381 105.874 48.6729C105.874 45.7077 106.559 43.1402 107.935 40.9706C109.305 38.8009 111.111 37.1592 113.355 36.0526C115.591 34.9389 118.017 34.3748 120.632 34.3458C124.631 34.3458 127.785 35.5102 130.101 37.839C130.713 38.4176 131.186 38.9817 131.521 39.5241C131.856 40.0665 132.024 40.6451 132.024 41.2526C131.995 42.0699 131.703 42.7641 131.143 43.3138C130.582 43.8707 129.89 44.1455 129.067 44.1455C128.243 44.1455 127.537 43.8634 126.947 43.2921C126.364 42.7208 126.066 42.0265 126.066 41.2092C126.066 40.392 126.364 39.6543 126.961 39.0829C127.559 38.5116 128.324 38.2295 129.263 38.2295C128.2 37.2749 127.02 36.5878 125.723 36.1683C124.434 35.7416 123.145 35.5319 121.863 35.5319C119.677 35.5608 117.762 36.1033 116.108 37.1592C114.455 38.2151 113.173 39.7338 112.248 41.701C111.33 43.6754 110.871 45.997 110.871 48.6657C110.871 51.3343 111.337 53.7137 112.27 55.7098C113.202 57.7059 114.513 59.2319 116.203 60.2951C117.893 61.351 119.845 61.8862 122.059 61.8862C123.152 61.8862 124.223 61.7126 125.279 61.3727C126.328 61.0255 127.267 60.4976 128.098 59.7888V48.8392H132.971V56.6211C131.747 58.8414 130.035 60.4614 127.836 61.4812C125.636 62.5009 123.232 63.0072 120.624 63.0072" fill="#F5EFD5"/>
<path d="M133 48.1884H121.943V49.8879H133V48.1884Z" fill="#F5EFD5"/>
<path fill-rule="evenodd" clip-rule="evenodd" d="M81.7274 36.4649L85.2966 31.8146L88.8585 36.4649L85.2966 41.1152L81.7274 36.4649Z" fill="#F5EFD5"/>
<path d="M7.93236 22.2463C6.44641 22.2463 5.00416 22.0293 3.58377 21.6099C2.16337 21.1904 0.968783 20.5829 0 19.7946L1.68991 17.191C2.19979 17.6249 2.79709 18.001 3.48179 18.3192C4.15921 18.6374 4.88033 18.8761 5.65245 19.0424C6.41727 19.216 7.18939 19.2955 7.95421 19.2955C9.35276 19.2955 10.4891 19.028 11.3559 18.5C12.2227 17.972 12.6524 17.1982 12.6524 16.1857C12.6524 15.4263 12.3611 14.7754 11.7711 14.2474C11.1811 13.7195 10.0957 13.2349 8.5078 12.7865L6.30073 12.1429C4.27575 11.5643 2.79709 10.7977 1.87201 9.84301C0.94693 8.88836 0.480749 7.70227 0.480749 6.27752C0.480749 5.3301 0.670135 4.47669 1.05619 3.71731C1.44225 2.95792 1.98127 2.29256 2.68054 1.73568C3.37981 1.17879 4.20291 0.752092 5.15713 0.455571C6.11134 0.159049 7.15297 0.0144043 8.28928 0.0144043C9.73153 0.0144043 11.0718 0.224139 12.3101 0.636377C13.5484 1.05585 14.5682 1.61273 15.3767 2.31425L13.6285 4.84554C13.1915 4.44776 12.6743 4.10785 12.0916 3.82579C11.5016 3.54374 10.8678 3.31954 10.1904 3.16766C9.51301 3.01578 8.8283 2.93623 8.13632 2.93623C7.2768 2.93623 6.51197 3.06641 5.8564 3.30507C5.19355 3.5582 4.67638 3.91258 4.31217 4.38267C3.94069 4.85277 3.75858 5.41688 3.75858 6.08948C3.75858 6.57404 3.88241 7.00074 4.13007 7.36959C4.37773 7.73843 4.80021 8.06388 5.3975 8.36764C5.9948 8.66416 6.8179 8.97514 7.87409 9.2789L10.205 9.96596C12.1935 10.5445 13.6431 11.2967 14.5609 12.2296C15.4787 13.1626 15.9448 14.3704 15.9448 15.853C15.9448 17.1259 15.6244 18.2396 15.0052 19.1943C14.3715 20.1562 13.461 20.9083 12.2664 21.4435C11.0718 21.9787 9.62955 22.2535 7.93965 22.2535" fill="#F5EFD5"/>
<path d="M30.1925 19.0207C31.2778 19.0207 32.2903 18.8327 33.23 18.4639C34.1623 18.095 34.9781 17.5598 35.6774 16.8655C36.3767 16.1712 36.9157 15.3395 37.3163 14.3632C37.7024 13.4013 37.9063 12.3165 37.9063 11.1304C37.9063 9.53206 37.564 8.14347 36.8866 6.95738C36.2019 5.77853 35.2768 4.86003 34.1113 4.20913C32.9459 3.55823 31.642 3.23278 30.1998 3.23278C29.1145 3.23278 28.1093 3.42082 27.1696 3.78966C26.23 4.16574 25.4069 4.69369 24.7149 5.38798C24.0156 6.08228 23.4693 6.90675 23.076 7.87587C22.6826 8.84499 22.486 9.92983 22.486 11.1304C22.486 12.7287 22.8283 14.1173 23.513 15.2961C24.1977 16.4822 25.1228 17.4007 26.2882 18.0516C27.4464 18.7025 28.7575 19.028 30.2071 19.028M30.2071 22.2608C28.59 22.2608 27.0895 21.9787 25.7201 21.4146C24.3434 20.8577 23.1488 20.0694 22.129 19.0641C21.1093 18.0589 20.3153 16.88 19.7471 15.5276C19.179 14.1751 18.8949 12.7142 18.8949 11.1376C18.8949 9.56098 19.179 8.08561 19.7471 6.73318C20.3153 5.38075 21.1093 4.2019 22.129 3.19662C23.1488 2.19134 24.3434 1.41026 25.7201 0.846141C27.0895 0.289259 28.59 0.00720215 30.2071 0.00720215C31.8241 0.00720215 33.3028 0.289259 34.6722 0.860606C36.0416 1.43195 37.2435 2.22027 38.2633 3.24001C39.283 4.25252 40.0843 5.43861 40.6524 6.78381C41.2206 8.129 41.5047 9.58268 41.5047 11.1376C41.5047 12.6925 41.2206 14.1751 40.6524 15.5276C40.0843 16.88 39.283 18.0589 38.2633 19.0641C37.2435 20.0694 36.0416 20.8577 34.6722 21.4146C33.3028 21.9787 31.8096 22.2608 30.2071 22.2608Z" fill="#F5EFD5"/>
<path d="M49.1748 9.5683H52.5838C53.4142 9.5683 54.128 9.43812 54.7326 9.17053C55.3372 8.90294 55.8033 8.52686 56.1457 8.02784C56.4808 7.52881 56.6556 6.92854 56.6556 6.22701C56.6556 5.22896 56.3059 4.46958 55.5921 3.93439C54.8783 3.40644 53.8658 3.13885 52.5401 3.13885H49.1821V9.5683H49.1748ZM49.1748 19.1076H52.8751C54.3465 19.1076 55.4464 18.8183 56.1603 18.247C56.8741 17.6756 57.231 16.8078 57.231 15.6506C57.231 14.4935 56.8741 13.6256 56.153 13.0325C55.4318 12.4323 54.3174 12.1357 52.8096 12.1357H49.1748V19.1149V19.1076ZM45.7367 21.7908V0.455688H53.1228C55.1769 0.455688 56.845 0.911319 58.1124 1.81535C59.3798 2.72661 60.0135 4.06457 60.0135 5.83647C60.0135 6.5163 59.8533 7.15997 59.5328 7.76025C59.205 8.36775 58.7898 8.89571 58.2799 9.35857C57.77 9.8142 57.2383 10.1541 56.6847 10.3639C57.8502 10.7182 58.8262 11.3691 59.6129 12.3166C60.3923 13.264 60.7856 14.4211 60.7856 15.8097C60.7856 16.9813 60.487 18.0156 59.897 18.9051C59.307 19.8019 58.462 20.5179 57.3621 21.0242C56.2695 21.5377 54.9657 21.798 53.4651 21.798H45.744L45.7367 21.7908Z" fill="#F5EFD5"/>
<path d="M68.6379 10.3494H72.7534C74.1446 10.3494 75.23 10.0529 76.0021 9.46705C76.7742 8.88124 77.1602 8.03507 77.1602 6.93577C77.1602 5.83647 76.8179 4.93244 76.1259 4.29601C75.4339 3.6668 74.3923 3.34858 73.001 3.34858H68.6452V10.3422L68.6379 10.3494ZM65.1998 21.7908V0.455688H73.3215C74.8148 0.455688 76.1113 0.708817 77.1967 1.22231C78.282 1.74303 79.1269 2.46625 79.7315 3.41367C80.3215 4.3611 80.6275 5.48209 80.6275 6.78389C80.6275 7.8398 80.3944 8.77276 79.9501 9.59C79.4912 10.4 78.8574 11.0654 78.0343 11.5933C77.2185 12.1213 76.2716 12.4684 75.1935 12.6565L81.6691 21.798H77.5099L71.5734 13.1844H68.6452V21.798H65.2071L65.1998 21.7908Z" fill="#F5EFD5"/>
<path d="M85.6171 21.7908L85.5952 0.455688H99.4714L99.486 3.47153H89.0333V9.23562L98.0437 9.25009L98.0583 12.0851H89.0333V18.746L99.5807 18.7605V21.7908H85.6171Z" fill="#F5EFD5"/>
<path d="M116.021 13.763H123.312L119.597 4.46958L116.021 13.763ZM109.451 21.7908L117.798 0.455688H121.528L130.094 21.7908H126.211L124.23 16.6993H115.125L113.224 21.7908H109.451Z" fill="#F5EFD5"/>
</g>
<defs>
<clipPath id="clip0_11_1094">
<rect width="133" height="63" fill="white"/>
</clipPath>
</defs>
</svg>
