<svg width="96" height="15" viewBox="0 0 96 15" fill="none" xmlns="http://www.w3.org/2000/svg">
<path fill-rule="evenodd" clip-rule="evenodd" d="M7.84979 0L9.58587 5.39358L15.2322 5.37731L10.6567 8.69644L12.4172 14.0819L7.84979 10.7465L3.29053 14.0819L5.05094 8.69644L0.475464 5.37731L6.12181 5.39358L7.84979 0Z" fill="#F2B0A7"/>
<path fill-rule="evenodd" clip-rule="evenodd" d="M27.969 0L29.7051 5.39358L35.3514 5.37731L30.7759 8.69644L32.5364 14.0819L27.969 10.7465L23.4097 14.0819L25.162 8.69644L20.5946 5.37731L26.2329 5.39358L27.969 0Z" fill="#F2B0A7"/>
<path fill-rule="evenodd" clip-rule="evenodd" d="M48.0882 0L49.8242 5.39358L55.4706 5.37731L50.8951 8.69644L52.6474 14.0819L48.0882 10.7465L43.5289 14.0819L45.2812 8.69644L40.7057 5.37731L46.3521 5.39358L48.0882 0Z" fill="#F2B0A7"/>
<path fill-rule="evenodd" clip-rule="evenodd" d="M68.2073 0L69.9434 5.39358L75.5898 5.37731L71.0143 8.69644L72.7666 14.0819L68.2073 10.7465L63.6481 14.0819L65.4004 8.69644L60.8249 5.37731L66.4713 5.39358L68.2073 0Z" fill="#F2B0A7"/>
<path fill-rule="evenodd" clip-rule="evenodd" d="M88.3265 0L90.0545 5.39358L95.7009 5.37731L91.1335 8.69644L92.8858 14.0819L88.3265 10.7465L83.7591 14.0819L85.5196 8.69644L80.9441 5.37731L86.5904 5.39358L88.3265 0Z" fill="#F2B0A7"/>
</svg>
