<svg width="143" height="69" viewBox="0 0 143 69" fill="none" xmlns="http://www.w3.org/2000/svg">
<g clip-path="url(#clip0_16_3366)">
<path d="M10.9498 66.9834C13.6736 66.9834 15.912 66.3306 17.6731 65.0251C19.4341 63.7195 20.7256 62.0176 21.5396 59.9272C22.3536 57.8367 22.7606 55.5676 22.7606 53.1274C22.7606 50.6873 22.3614 48.4569 21.5552 46.3665C20.7569 44.276 19.4811 42.5819 17.7357 41.2919C15.9903 40.0019 13.7831 39.3491 11.122 39.3491H6.52762V66.9834H10.9498ZM1.33057 68.0947V38.2456H11.7247C15.419 38.2456 18.5027 38.9528 20.976 40.3594C23.4493 41.7659 25.2808 43.5999 26.4549 45.8614C27.6289 48.1228 28.2159 50.5707 28.2159 53.2207C28.2159 55.8706 27.6289 58.2719 26.4549 60.5333C25.2808 62.7947 23.4572 64.621 20.976 66.012C18.5027 67.4031 15.4111 68.1025 11.7247 68.1025H1.33057V68.0947Z" fill="#A53F26"/>
<path d="M43.4157 66.8125C44.5897 66.8125 45.7716 66.5017 46.9613 65.8722C48.151 65.2505 49.2154 64.419 50.1625 63.401V57.9845H43.9323C41.8973 57.9845 40.4415 58.3497 39.5492 59.0724C38.6648 59.7952 38.2187 60.8443 38.2187 62.2042C38.2187 63.6574 38.6804 64.7843 39.6118 65.5925C40.5432 66.4007 41.8112 66.8048 43.4157 66.8048M41.052 68.5067C38.563 68.5067 36.5985 67.9316 35.1662 66.7815C33.7339 65.6313 33.0216 64.0849 33.0216 62.1576C33.0216 60.4246 33.7495 59.1191 35.2131 58.2565C36.6768 57.3861 38.7744 56.9587 41.5294 56.9587H50.1625V55.6764C50.1625 52.9488 49.6537 50.8739 48.6362 49.4517C47.6187 48.0296 45.9203 47.3069 43.5488 47.2758C41.232 47.2758 39.3536 47.8742 37.9212 49.0632C38.8683 49.0632 39.6197 49.3585 40.1754 49.9413C40.7311 50.5242 41.0129 51.2391 41.0129 52.0939C41.0129 52.9488 40.7233 53.6793 40.1362 54.2077C39.5492 54.7361 38.8292 55.0004 37.9682 55.0004C37.1072 55.0004 36.4263 54.7206 35.8393 54.1688C35.2523 53.6171 34.9627 52.8944 34.9627 52.0162C34.9627 50.6485 35.7923 49.4129 37.4516 48.3094C38.3674 47.6566 39.4397 47.1748 40.6763 46.8562C41.9051 46.5453 43.1496 46.3899 44.4097 46.3899C47.5326 46.3899 50.1155 47.1826 52.1583 48.7601C54.209 50.3376 55.2265 52.7623 55.2265 56.0339V68.1026H50.3738V64.52C49.1998 65.6857 47.8066 66.6416 46.1864 67.3954C44.5663 68.1492 42.86 68.5222 41.052 68.5222V68.5067Z" fill="#A53F26"/>
<path d="M61.4176 68.0948V47.1981L66.3172 46.2578V50.0113C67.4913 48.8456 68.8218 47.9442 70.3089 47.3069C71.7961 46.6697 73.3301 46.3511 74.9033 46.3511C79.8264 46.3511 82.2919 48.9389 82.2919 54.1145V68.1026H77.1809V54.9227C77.1809 53.4462 77.087 52.2183 76.8992 51.2547C76.7113 50.2911 76.32 49.5062 75.7173 48.9078C75.1146 48.3094 74.2302 48.0141 73.0562 48.0141C71.8821 48.0141 70.7551 48.2705 69.581 48.7834C68.407 49.2963 67.3895 50.0501 66.5286 51.0449V68.1026H61.4176V68.0948Z" fill="#A53F26"/>
<path fill-rule="evenodd" clip-rule="evenodd" d="M94.1809 68.0949H89.0778V47.1982L94.1809 46.219V68.0949Z" fill="#A53F26"/>
<path d="M129.613 68.5143C126.835 68.5143 124.236 67.9081 121.818 66.7036C119.399 65.499 117.45 63.7272 115.979 61.3959C114.507 59.0645 113.764 56.3057 113.764 53.1196C113.764 49.9334 114.5 47.1746 115.979 44.8433C117.45 42.5119 119.391 40.7478 121.802 39.5588C124.205 38.3621 126.811 37.7559 129.621 37.7249C133.918 37.7249 137.307 38.976 139.796 41.4783C140.453 42.1 140.962 42.7062 141.322 43.289C141.682 43.8719 141.862 44.4935 141.862 45.1463C141.831 46.0245 141.518 46.7705 140.915 47.3611C140.313 47.9595 139.569 48.2548 138.685 48.2548C137.8 48.2548 137.041 47.9517 136.407 47.3378C135.781 46.7239 135.46 45.9778 135.46 45.0997C135.46 44.2216 135.781 43.4289 136.423 42.815C137.064 42.2011 137.886 41.898 138.896 41.898C137.753 40.8722 136.485 40.1339 135.092 39.6832C133.707 39.2247 132.321 38.9993 130.944 38.9993C128.596 39.0304 126.537 39.6132 124.761 40.7478C122.984 41.8824 121.606 43.5144 120.612 45.6281C119.626 47.7497 119.133 50.2442 119.133 53.1118C119.133 55.9793 119.634 58.5361 120.636 60.6809C121.638 62.8258 123.046 64.4655 124.862 65.6078C126.678 66.7424 128.776 67.3175 131.155 67.3175C132.329 67.3175 133.48 67.131 134.615 66.7657C135.742 66.3927 136.751 65.8254 137.644 65.0638V53.2983H142.88V61.6601C141.565 64.0458 139.726 65.7866 137.362 66.8823C134.998 67.978 132.415 68.522 129.613 68.522" fill="#A53F26"/>
<path d="M142.911 52.5991H131.03V54.4254H142.911V52.5991Z" fill="#A53F26"/>
<path fill-rule="evenodd" clip-rule="evenodd" d="M87.8176 40.002L91.6528 35.0051L95.4801 40.002L91.6528 44.9989L87.8176 40.002Z" fill="#A53F26"/>
<path d="M8.52348 24.7238C6.92679 24.7238 5.37707 24.4907 3.85083 24.0399C2.32458 23.5892 1.04098 22.9364 0 22.0894L1.81584 19.2917C2.36372 19.758 3.00552 20.1621 3.74125 20.504C4.46915 20.846 5.24401 21.1024 6.07366 21.2812C6.89548 21.4677 7.72513 21.5532 8.54696 21.5532C10.0497 21.5532 11.2707 21.2656 12.2021 20.6983C13.1335 20.131 13.5953 19.2995 13.5953 18.2116C13.5953 17.3956 13.2822 16.6962 12.6482 16.1289C12.0143 15.5616 10.8481 15.0409 9.1418 14.5591L6.77025 13.8675C4.59438 13.2458 3.00552 12.422 2.01151 11.3962C1.01749 10.3704 0.516574 9.09596 0.516574 7.56504C0.516574 6.54702 0.720073 5.63002 1.1349 4.81405C1.54972 3.99807 2.12891 3.28313 2.88029 2.68474C3.63167 2.08636 4.51611 1.62787 5.54143 1.30925C6.56675 0.990629 7.686 0.835205 8.90699 0.835205C10.4567 0.835205 11.8969 1.06057 13.2274 1.50353C14.558 1.95425 15.6538 2.55263 16.5226 3.30644L14.6441 6.02635C14.1745 5.59894 13.6188 5.23369 12.9926 4.93061C12.3586 4.62754 11.6777 4.38663 10.9498 4.22344C10.2219 4.06024 9.48618 3.97476 8.74263 3.97476C7.81906 3.97476 6.99723 4.11464 6.29281 4.37109C5.58057 4.64308 5.02486 5.02387 4.63351 5.529C4.23434 6.03412 4.03867 6.64027 4.03867 7.36299C4.03867 7.88366 4.17173 8.34216 4.43784 8.73849C4.70396 9.13482 5.15792 9.48452 5.79972 9.81091C6.44152 10.1295 7.32596 10.4637 8.46086 10.7901L10.9655 11.5283C13.1022 12.15 14.6598 12.9582 15.6459 13.9607C16.6321 14.9632 17.133 16.261 17.133 17.8541C17.133 19.2218 16.7887 20.4186 16.1234 21.4444C15.4424 22.4779 14.4641 23.2861 13.1805 23.8612C11.8969 24.4363 10.3471 24.7316 8.5313 24.7316" fill="#A53F26"/>
<path d="M32.4425 21.2578C33.6087 21.2578 34.6966 21.0558 35.7063 20.6594C36.7081 20.2631 37.5847 19.688 38.3361 18.942C39.0875 18.196 39.6667 17.3023 40.0972 16.2532C40.512 15.2196 40.7311 14.0539 40.7311 12.7795C40.7311 11.062 40.3633 9.56996 39.6354 8.29549C38.8997 7.02879 37.9056 6.04185 36.6533 5.34245C35.401 4.64304 34 4.29334 32.4503 4.29334C31.2841 4.29334 30.204 4.49539 29.1943 4.89172C28.1846 5.29582 27.3002 5.86311 26.5567 6.60915C25.8053 7.35518 25.2183 8.24109 24.7956 9.28243C24.373 10.3238 24.1616 11.4894 24.1616 12.7795C24.1616 14.4969 24.5295 15.989 25.2652 17.2557C26.0009 18.5301 26.995 19.5171 28.2473 20.2165C29.4917 20.9159 30.9006 21.2656 32.4581 21.2656M32.4581 24.7393C30.7206 24.7393 29.1082 24.4362 27.6368 23.8301C26.1575 23.2317 24.8739 22.3846 23.7781 21.3044C22.6823 20.2242 21.8292 18.9575 21.2187 17.5043C20.6082 16.0511 20.303 14.4813 20.303 12.7872C20.303 11.0931 20.6082 9.5078 21.2187 8.05459C21.8292 6.60138 22.6823 5.33467 23.7781 4.25448C24.8739 3.17429 26.1575 2.335 27.6368 1.72885C29.1082 1.13047 30.7206 0.827393 32.4581 0.827393C34.1957 0.827393 35.7846 1.13047 37.256 1.74439C38.7275 2.35831 40.0189 3.20537 41.1147 4.30111C42.2104 5.38907 43.0714 6.66355 43.6819 8.10898C44.2924 9.55442 44.5976 11.1164 44.5976 12.7872C44.5976 14.458 44.2924 16.0511 43.6819 17.5043C43.0714 18.9575 42.2104 20.2242 41.1147 21.3044C40.0189 22.3846 38.7275 23.2317 37.256 23.8301C35.7846 24.4362 34.18 24.7393 32.4581 24.7393Z" fill="#A53F26"/>
<path d="M52.8393 11.101H56.5023C57.3946 11.101 58.1616 10.9611 58.8112 10.6736C59.4609 10.3861 59.9618 9.98196 60.3296 9.44575C60.6897 8.90954 60.8775 8.26453 60.8775 7.51072C60.8775 6.4383 60.5018 5.62233 59.7348 5.04726C58.9678 4.47997 57.8798 4.19243 56.4553 4.19243H52.8471V11.101H52.8393ZM52.8393 21.3512H56.8154C58.3964 21.3512 59.5783 21.0403 60.3453 20.4264C61.1123 19.8125 61.4958 18.88 61.4958 17.6366C61.4958 16.3932 61.1123 15.4606 60.3375 14.8234C59.5626 14.1784 58.3651 13.8598 56.7449 13.8598H52.8393V21.359V21.3512ZM49.145 24.2343V1.30933H57.0815C59.2887 1.30933 61.081 1.79891 62.4429 2.77031C63.8048 3.74948 64.4857 5.18714 64.4857 7.09108C64.4857 7.82157 64.3135 8.51321 63.9691 9.15821C63.6169 9.81099 63.1708 10.3783 62.6229 10.8756C62.075 11.3652 61.5037 11.7305 60.9088 11.9558C62.1611 12.3366 63.2099 13.036 64.0552 14.0541C64.8927 15.0721 65.3154 16.3155 65.3154 17.8075C65.3154 19.0665 64.9945 20.1777 64.3605 21.1336C63.7265 22.0972 62.8186 22.8666 61.6367 23.4105C60.4627 23.9623 59.0617 24.2421 57.4493 24.2421H49.1528L49.145 24.2343Z" fill="#A53F26"/>
<path d="M73.7526 11.9403H78.1748C79.6698 11.9403 80.836 11.6217 81.6656 10.9922C82.4953 10.3627 82.9101 9.45352 82.9101 8.2723C82.9101 7.09108 82.5422 6.11968 81.7987 5.43582C81.0551 4.75973 79.9359 4.4178 78.4409 4.4178H73.7605V11.9325L73.7526 11.9403ZM70.0583 24.2343V1.30933H78.7853C80.3898 1.30933 81.783 1.58132 82.9492 2.13307C84.1154 2.6926 85.0233 3.46971 85.673 4.48774C86.307 5.50576 86.6357 6.71029 86.6357 8.1091C86.6357 9.2437 86.3852 10.2462 85.9078 11.1243C85.4147 11.9947 84.7338 12.7096 83.8493 13.2769C82.9727 13.8442 81.9552 14.2172 80.7968 14.4193L87.7549 24.2421H83.2858L76.9069 14.9866H73.7605V24.2421H70.0662L70.0583 24.2343Z" fill="#A53F26"/>
<path d="M91.9972 24.2343L91.9738 1.30933H106.884L106.9 4.54991H95.668V10.7435L105.35 10.7591L105.366 13.8054H95.668V20.9626L107.001 20.9782V24.2343H91.9972Z" fill="#A53F26"/>
<path d="M124.667 15.6083H132.501L128.51 5.62233L124.667 15.6083ZM117.607 24.2343L126.576 1.30933H130.584L139.788 24.2343H135.616L133.487 18.7634H123.704L121.661 24.2343H117.607Z" fill="#A53F26"/>
</g>
<defs>
<clipPath id="clip0_16_3366">
<rect width="142.911" height="67.6947" fill="white" transform="translate(0 0.819824)"/>
</clipPath>
</defs>
</svg>
