<svg width="106" height="61" viewBox="0 0 106 61" fill="none" xmlns="http://www.w3.org/2000/svg">
<g clip-path="url(#clip0_16_3381)">
<path d="M28.3262 5.35729C25.4031 2.5105 21.3667 0.753731 16.9136 0.753731C12.4604 0.753731 8.41808 2.5163 5.50093 5.35729C2.57781 8.19827 0.77394 12.1293 0.77394 16.4719C0.42269 25.5921 0.77394 35.4427 0.77394 44.644C0.803707 48.9577 2.62544 52.8655 5.5426 55.6891C8.45976 58.5069 12.4783 60.2521 16.9136 60.2521C21.3488 60.2521 25.3674 58.5069 28.2845 55.6891C31.2076 52.8655 33.0234 48.9635 33.0532 44.644C33.0234 35.2746 32.9639 25.8356 33.0532 16.4719C33.0532 12.1293 31.2434 8.19827 28.3262 5.35729ZM16.9136 0C21.587 0 25.8139 1.84374 28.8739 4.82388C31.9339 7.80401 33.8271 11.9205 33.8271 16.4719C33.7378 16.6516 33.8271 41.403 33.8271 45.0209H33.8152C33.6842 49.3983 31.803 53.3409 28.8263 56.2167C25.7662 59.1737 21.5572 61 16.9136 61C12.2699 61 8.05493 59.1737 5.00084 56.2167C2.02415 53.3409 0.142881 49.3925 0.0119068 45.0209H0C0 41.4088 0.0893007 16.6516 0 16.4719C0 11.9263 1.89318 7.80401 4.95321 4.82388C8.01325 1.84374 12.2461 0 16.9136 0Z" fill="white"/>
<path d="M5.44736 15.4341C5.60215 12.4713 6.94166 9.81007 9.00748 7.89675C11.0674 5.98924 13.8535 4.82385 16.9136 4.82385C19.9736 4.82385 22.736 5.98344 24.7899 7.87356C26.8557 9.77528 28.2012 12.4133 28.3738 15.3587L27.6059 15.3993C27.4451 12.6511 26.1889 10.1927 24.2601 8.41857C22.3431 6.656 19.7533 5.57758 16.9076 5.57758C14.0619 5.57758 11.4543 6.66759 9.53138 8.44176C7.60248 10.2275 6.35227 12.709 6.20939 15.4688L5.44141 15.4341H5.44736Z" fill="white"/>
<path d="M28.3142 46.6327C27.969 49.4157 26.5759 51.8915 24.5219 53.6598C22.4978 55.4108 19.8307 56.4718 16.9135 56.4718C13.9964 56.4718 11.3054 55.3992 9.27533 53.6366C7.22141 51.8567 5.83427 49.3636 5.50684 46.5574L6.27482 46.4762C6.57844 49.0911 7.87628 51.4102 9.79327 53.0742C11.6864 54.7208 14.1809 55.7181 16.9195 55.7181C19.658 55.7181 22.1287 54.7266 24.0219 53.0974C25.9329 51.4508 27.2367 49.1432 27.5582 46.5458L28.3262 46.6327H28.3142Z" fill="white"/>
<path d="M16.2528 30.6768L16.5148 30.6652L16.5326 30.3695C16.5386 30.184 16.5445 29.9753 16.5445 29.7492C16.5445 25.7486 14.8776 22.1307 12.1867 19.5042C9.49573 16.8836 5.77487 15.2601 1.67298 15.2601C1.43485 15.2601 1.23839 15.2601 1.07765 15.2659L0.821651 15.2775L0.803791 15.579C0.797837 15.7646 0.791884 15.9733 0.791884 16.1994C0.791884 20.2 2.45883 23.8179 5.14976 26.4385C7.84069 29.0592 11.5616 30.6826 15.6634 30.6826C15.8837 30.6826 16.0802 30.6826 16.2588 30.671M16.9077 31.3842C16.7172 31.3958 16.5088 31.4132 16.2885 31.419C16.0623 31.4248 15.8539 31.4306 15.6694 31.4306C11.3472 31.4306 7.43586 29.726 4.608 26.9662C1.76824 24.2237 0.0179443 20.4145 0.0179443 16.2052C0.0179443 16.0081 0.0179443 15.7878 0.0358045 15.5558C0.0477112 15.3239 0.059618 15.1036 0.0774782 14.9065L0.107245 14.5876L0.434681 14.5586C0.64305 14.5412 0.839511 14.5296 1.05383 14.5238C1.27411 14.518 1.47057 14.5122 1.67894 14.5122C6.00109 14.5122 9.91247 16.2168 12.7403 18.9766C15.5682 21.7364 17.3244 25.5457 17.3244 29.7492C17.3244 29.9463 17.3244 30.1666 17.3066 30.3985C17.2947 30.6304 17.2828 30.8508 17.2649 31.0479L17.2351 31.3668L16.9077 31.39V31.3842Z" fill="white"/>
<path d="M17.4673 31.4248C17.247 31.419 17.0386 31.4074 16.8481 31.39L16.5207 31.3668L16.4909 31.0479C16.4731 30.8508 16.4612 30.6304 16.4493 30.3985C16.4373 30.1608 16.4314 29.9463 16.4314 29.7434C16.4314 25.5167 18.1876 21.6958 21.0334 18.9244C23.8731 16.1588 27.8024 14.4426 32.1424 14.4426C32.3507 14.4426 32.5472 14.4426 32.7675 14.4542C32.9818 14.46 33.1783 14.4716 33.3926 14.489L33.72 14.518L33.7498 14.8369C33.7677 15.034 33.7796 15.2543 33.7915 15.4863C33.8034 15.7182 33.8093 15.9385 33.8093 16.1356C33.8093 20.3623 32.0531 24.1831 29.2074 26.9546C26.3676 29.7202 22.4384 31.4364 18.0983 31.4364C17.9138 31.4364 17.7054 31.4364 17.4732 31.4248M17.2411 30.6652L17.503 30.6768C17.6757 30.6826 17.8781 30.6884 18.0983 30.6884C22.224 30.6884 25.9568 29.0592 28.6596 26.4269C31.3625 23.7947 33.0354 20.1594 33.0354 16.1414C33.0354 15.9153 33.0354 15.7066 33.0235 15.521L33.0056 15.2195L32.7437 15.208C32.5829 15.2022 32.3865 15.2022 32.1424 15.2022C28.0167 15.2022 24.2839 16.8314 21.5811 19.4636C18.8782 22.0959 17.2053 25.7312 17.2053 29.7492C17.2053 29.9753 17.2053 30.184 17.2172 30.3695L17.2351 30.671L17.2411 30.6652Z" fill="white"/>
<path d="M16.2885 30.6536C16.5088 30.6594 16.7172 30.671 16.9017 30.6884L17.2292 30.7116L17.2589 31.0305C17.2768 31.2276 17.2887 31.4421 17.3006 31.6741C17.3125 31.906 17.3185 32.1205 17.3185 32.3176C17.3185 36.4921 15.5801 40.2724 12.7701 43.009C9.96007 45.7456 6.07847 47.4386 1.79203 47.4386C1.58962 47.4386 1.39315 47.4386 1.17288 47.427C0.958558 47.4212 0.762096 47.4096 0.559681 47.3922L0.232245 47.3633L0.202478 47.0444C0.184618 46.8472 0.172711 46.6327 0.160804 46.4008C0.148898 46.1689 0.142944 45.9544 0.142944 45.7572C0.142944 41.5827 1.88133 37.8025 4.69133 35.0658C7.50133 32.3292 11.3829 30.6362 15.6694 30.6362C15.8539 30.6362 16.0623 30.6362 16.2885 30.6478M16.5147 31.4074L16.2588 31.3958C16.0861 31.39 15.8896 31.3842 15.6694 31.3842C11.5973 31.3842 7.90616 32.9902 5.23904 35.5935C2.57192 38.1967 0.916884 41.7856 0.916884 45.7514C0.916884 45.9775 0.916884 46.1805 0.928791 46.366L0.946651 46.6617L1.19669 46.6733C1.35743 46.6733 1.54794 46.6791 1.78608 46.6791C5.85819 46.6791 9.54929 45.0731 12.2164 42.4698C14.8835 39.8723 16.5386 36.2776 16.5386 32.3118C16.5386 32.0857 16.5386 31.8828 16.5267 31.6973L16.5088 31.4074H16.5147Z" fill="white"/>
<path d="M17.491 31.4074L17.235 31.419L17.2171 31.7147C17.2112 31.9002 17.2052 32.109 17.2052 32.3351C17.2052 36.3183 18.8662 39.9246 21.5453 42.5394C24.2243 45.1485 27.9273 46.7661 32.0232 46.7661C32.2613 46.7661 32.4578 46.7661 32.6186 46.7603L32.8745 46.7487L32.8924 46.453C32.8984 46.2675 32.9043 46.0588 32.9043 45.8327C32.9043 41.8495 31.2433 38.2432 28.5643 35.6283C25.8853 33.0192 22.1823 31.4016 18.0863 31.4016C17.8661 31.4016 17.6696 31.4016 17.497 31.4132M16.848 30.7001C17.0385 30.6885 17.241 30.6769 17.4672 30.6653C17.6934 30.6537 17.9018 30.6537 18.0863 30.6537C22.3906 30.6537 26.2842 32.3525 29.1061 35.1007C31.928 37.8489 33.6723 41.6408 33.6723 45.8327C33.6723 46.0298 33.6723 46.2443 33.6544 46.482C33.6425 46.7139 33.6306 46.9285 33.6128 47.1314L33.583 47.4445L33.2615 47.4735C33.0531 47.4909 32.8567 47.5025 32.6424 47.5083C32.4221 47.5141 32.2256 47.5199 32.0232 47.5199C27.7189 47.5199 23.8254 45.8211 21.0035 43.0728C18.1816 40.3246 16.4373 36.5328 16.4373 32.3409C16.4373 32.1438 16.4373 31.9292 16.4551 31.6915C16.467 31.4596 16.4789 31.2451 16.4968 31.0421L16.5266 30.7233L16.854 30.7001H16.848Z" fill="white"/>
<path d="M16.9016 12.2917L14.8179 14.9645L16.9314 17.6084L19.0151 14.9355L16.9016 12.2917ZM14.0261 14.7442L16.8957 11.0625L19.9855 14.9297L16.9373 18.8375L13.8475 14.9703L14.0261 14.7384V14.7442Z" fill="white"/>
<path d="M16.9016 44.0874L14.8179 46.7603L16.9314 49.4041L19.0151 46.7313L16.9016 44.0874ZM14.0261 46.54L16.8957 42.8583L19.9855 46.7255L16.9373 50.6333L13.8475 46.7661L14.0261 46.5342V46.54Z" fill="white"/>
<path d="M52.3659 18.82H50.2048V13.6193L45.9601 6.51685H48.4665L52.0623 12.5641L56.0868 6.51685H56.6643L52.3659 13.0221V18.82Z" fill="white"/>
<path d="M61.7009 18.5418C62.3379 18.5418 62.8797 18.3563 63.3143 17.9794C63.7548 17.6025 64.0823 17.1039 64.3085 16.4777C64.5288 15.8516 64.6419 15.1674 64.6419 14.4311C64.6419 13.6947 64.5288 13.0106 64.3085 12.3844C64.0882 11.7582 63.7548 11.2538 63.3143 10.8827C62.8737 10.5059 62.3379 10.3203 61.7009 10.3203C60.7722 10.3203 60.0637 10.7146 59.5636 11.5089C59.0636 12.2974 58.8135 13.2773 58.8135 14.4369C58.8135 15.5965 59.0636 16.5705 59.5636 17.3648C60.0637 18.1533 60.7781 18.5534 61.7009 18.5534M61.7188 19.0114C60.7305 19.0114 59.8494 18.8259 59.0755 18.4548C58.3015 18.0838 57.6943 17.5562 57.2537 16.8662C56.8132 16.1762 56.5929 15.3645 56.5929 14.4427C56.5929 13.5208 56.8132 12.7091 57.2537 12.0191C57.6943 11.3292 58.3015 10.7958 59.0755 10.4305C59.8494 10.0594 60.7305 9.8739 61.7188 9.8739C62.707 9.8739 63.5822 10.0594 64.3561 10.4305C65.1241 10.8016 65.7313 11.3292 66.1719 12.0191C66.6124 12.7091 66.8327 13.5208 66.8327 14.4427C66.8327 15.3645 66.6124 16.1762 66.1719 16.8662C65.7313 17.5562 65.13 18.0896 64.3561 18.4548C63.5881 18.8259 62.707 19.0114 61.7188 19.0114Z" fill="white"/>
<path d="M73.4111 18.362C73.929 18.362 74.4053 18.1881 74.8339 17.846C75.2685 17.4981 75.6019 17.0285 75.846 16.4313V12.4249C75.6198 11.8161 75.2864 11.3407 74.8518 10.9986C74.4172 10.6566 73.935 10.4884 73.4051 10.4884C72.8753 10.4884 72.3633 10.6624 71.9347 11.016C71.506 11.3697 71.1786 11.8451 70.9523 12.4481C70.7261 13.0511 70.607 13.7121 70.607 14.4252C70.607 15.1384 70.7261 15.8167 70.9583 16.4139C71.1905 17.0111 71.5179 17.4865 71.9406 17.8402C72.3633 18.1939 72.8515 18.3678 73.4051 18.3678M73.1372 23.87C72.5836 23.87 72.0418 23.7889 71.506 23.6323C70.9702 23.4758 70.4939 23.2381 70.0712 22.9192C69.458 22.4379 69.1485 21.9335 69.1485 21.4059C69.1604 21.0638 69.2914 20.7739 69.5354 20.5362C69.7795 20.2985 70.0891 20.1768 70.4642 20.1768C70.8392 20.1768 71.1309 20.3043 71.3869 20.5536C71.637 20.8029 71.768 21.1102 71.768 21.4581C71.768 21.806 71.6429 22.1249 71.3988 22.3626C71.1548 22.6003 70.8333 22.722 70.4344 22.722C70.7737 22.9656 71.1488 23.1453 71.5596 23.2555C71.9763 23.3656 72.3871 23.4236 72.7979 23.4236C73.81 23.4236 74.572 23.1221 75.078 22.5249C75.59 21.9277 75.846 21.0812 75.846 19.9912V17.5329C75.4948 17.9677 75.0483 18.3156 74.5006 18.5881C73.9528 18.8548 73.3754 18.994 72.7562 18.994C71.9525 18.994 71.2143 18.8026 70.5535 18.4142C69.8926 18.0257 69.3687 17.4865 68.9818 16.7908C68.5948 16.095 68.4043 15.3065 68.4043 14.4252C68.4043 13.5439 68.5948 12.7554 68.9818 12.0597C69.3687 11.3639 69.8926 10.8189 70.5535 10.4362C71.2143 10.0478 71.9466 9.85644 72.7562 9.85644C73.417 9.85644 74.0302 9.99559 74.5899 10.2797C75.1495 10.5638 75.596 10.9465 75.9353 11.4393V10.2101L77.9595 9.82166V19.7361C77.9595 20.6638 77.7332 21.4349 77.2808 22.0495C76.8283 22.6641 76.2389 23.1221 75.5007 23.4178C74.7685 23.7193 73.9767 23.8642 73.1372 23.8642V23.87Z" fill="white"/>
<path d="M84.1868 18.2925C84.6809 18.2925 85.1751 18.1649 85.6751 17.904C86.1752 17.6489 86.6217 17.3068 87.0206 16.8836V14.6514H84.4011C83.5498 14.6514 82.9306 14.8021 82.5615 15.0978C82.1924 15.3935 82.0019 15.8284 82.0019 16.3908C82.0019 16.988 82.1984 17.4518 82.5913 17.7881C82.9842 18.1244 83.5141 18.2867 84.1868 18.2867M83.1926 18.9882C82.1448 18.9882 81.3232 18.7505 80.7219 18.2751C80.1206 17.7997 79.817 17.1619 79.817 16.3676C79.817 15.6544 80.1266 15.1152 80.7398 14.7616C81.353 14.4021 82.24 14.2281 83.395 14.2281H87.0206V13.7005C87.0206 12.5757 86.8063 11.7176 86.3776 11.1321C85.949 10.5465 85.2405 10.245 84.2404 10.2334C83.264 10.2334 82.4782 10.4769 81.8769 10.9697C82.2758 10.9697 82.5913 11.0915 82.8235 11.3292C83.0556 11.5669 83.1747 11.8626 83.1747 12.2163C83.1747 12.5699 83.0497 12.8714 82.8056 13.086C82.5615 13.3005 82.2579 13.4106 81.8947 13.4106C81.5316 13.4106 81.2458 13.2947 81.0017 13.0686C80.7576 12.8424 80.6326 12.5467 80.6326 12.1815C80.6326 11.6191 80.9839 11.1089 81.6804 10.6508C82.0674 10.3841 82.5139 10.1812 83.0318 10.0536C83.5498 9.92608 84.0737 9.8623 84.6035 9.8623C85.9133 9.8623 87.0027 10.187 87.86 10.8364C88.7233 11.4857 89.1519 12.4888 89.1519 13.8339V18.8085H87.1099V17.33C86.6158 17.8113 86.0323 18.2055 85.3477 18.5186C84.669 18.8317 83.9487 18.9824 83.1926 18.9824V18.9882Z" fill="white"/>
<path d="M91.7892 18.82V10.2101L93.8312 9.82166V11.3697C94.3134 10.9001 94.8254 10.529 95.3672 10.2623C95.9089 9.99559 96.4388 9.85644 96.9567 9.85644C97.3556 9.85644 97.6711 9.9782 97.9033 10.2159C98.1355 10.4536 98.2546 10.7609 98.2546 11.1204C98.2546 11.4799 98.1295 11.7698 97.8735 12.0191C97.6235 12.2626 97.3139 12.3901 96.9508 12.3901C96.5876 12.3901 96.2602 12.2684 96.0042 12.0191C95.7482 11.7756 95.6172 11.4741 95.6172 11.1204C95.6172 10.9696 95.6529 10.8015 95.7244 10.6276C95.0516 10.8015 94.4503 11.19 93.9205 11.7872V18.82H91.7892Z" fill="white"/>
<path d="M51.0146 36.5733C50.0382 36.5733 49.175 36.3762 48.4248 35.9819C47.6747 35.5877 47.0913 35.0485 46.6745 34.3585C46.2578 33.6686 46.0494 32.88 46.0494 32.0046C46.0494 31.1291 46.2578 30.3406 46.6745 29.6506C47.0913 28.9606 47.6747 28.4156 48.4248 28.0272C49.175 27.6329 50.0382 27.4358 51.0146 27.4358C52.1695 27.4358 53.128 27.7373 53.8841 28.3345C54.5092 28.7925 54.8247 29.2679 54.8247 29.7608C54.8247 30.126 54.6997 30.4275 54.4556 30.6652C54.2115 30.903 53.902 31.0247 53.5269 31.0247C53.1518 31.0247 52.8601 30.903 52.6041 30.6536C52.3541 30.4101 52.2231 30.1028 52.2231 29.7376C52.2231 29.4071 52.3422 29.123 52.5743 28.8853C52.8065 28.6476 53.0982 28.5142 53.4495 28.491C52.9196 28.1141 52.2707 27.9286 51.5027 27.9286C50.8657 27.9402 50.3002 28.1199 49.806 28.462C49.3119 28.8099 48.9309 29.2853 48.6689 29.9057C48.407 30.5203 48.2701 31.2218 48.2701 32.0046C48.2701 32.7873 48.407 33.5236 48.6868 34.1382C48.9606 34.7528 49.3536 35.2282 49.8537 35.5703C50.3537 35.9124 50.9253 36.0805 51.5801 36.0805C52.1219 36.0805 52.622 35.9761 53.0863 35.7732C53.5507 35.5703 53.9436 35.2572 54.2711 34.8339H54.7235C54.3604 35.3616 53.8722 35.7848 53.253 36.0979C52.6339 36.4168 51.8897 36.5733 51.0265 36.5733" fill="white"/>
<path d="M61.1948 36.1153C61.8318 36.1153 62.3736 35.9298 62.8082 35.5529C63.2487 35.176 63.5761 34.6774 63.8024 34.0512C64.0227 33.4251 64.1358 32.7409 64.1358 32.0046C64.1358 31.2682 64.0227 30.5841 63.8024 29.9579C63.5821 29.3317 63.2487 28.8273 62.8082 28.4562C62.3676 28.0794 61.8318 27.8938 61.1948 27.8938C60.2661 27.8938 59.5576 28.2881 59.0575 29.0824C58.5574 29.8767 58.3074 30.8508 58.3074 32.0104C58.3074 33.1699 58.5574 34.144 59.0575 34.9383C59.5576 35.7326 60.272 36.1269 61.1948 36.1269M61.2127 36.5849C60.2244 36.5849 59.3433 36.3994 58.5694 36.0283C57.7954 35.6573 57.1882 35.1296 56.7476 34.4397C56.3071 33.7497 56.0868 32.938 56.0868 32.0162C56.0868 31.0943 56.3071 30.2826 56.7476 29.5926C57.1882 28.9027 57.7954 28.3693 58.5694 28.004C59.3433 27.6329 60.2244 27.4474 61.2127 27.4474C62.2009 27.4474 63.0761 27.6329 63.85 28.004C64.618 28.3751 65.2252 28.9027 65.6658 29.5926C66.1063 30.2826 66.3266 31.0943 66.3266 32.0162C66.3266 32.938 66.1063 33.7497 65.6658 34.4397C65.2252 35.1296 64.6239 35.6631 63.85 36.0283C63.082 36.3994 62.2009 36.5849 61.2127 36.5849Z" fill="white"/>
<path d="M68.2495 36.3935V27.7836L70.3094 27.3951V28.8562C71.2262 27.9054 72.2442 27.4299 73.3754 27.4299C74.7566 27.4299 75.6615 27.9691 76.0842 29.0476C76.5902 28.4852 77.1022 28.0735 77.6261 27.8184C78.15 27.5633 78.7096 27.4299 79.3109 27.4299C80.2515 27.4299 80.9778 27.6792 81.4958 28.1779C82.0137 28.6765 82.2697 29.494 82.2697 30.6304V36.3935H80.1384V30.9609C80.1384 30.0216 80.0491 29.3143 79.8705 28.833C79.6919 28.3518 79.293 28.1141 78.6798 28.1141C77.7749 28.1141 76.9534 28.5663 76.2092 29.465C76.2925 29.7839 76.3342 30.1666 76.3342 30.6246V36.3877H74.2029V30.9551C74.2029 30.0158 74.1136 29.3085 73.935 28.8272C73.7564 28.346 73.3575 28.1083 72.7443 28.1083C71.9168 28.1083 71.1309 28.5141 70.3987 29.3201V36.3877H68.2495V36.3935Z" fill="white"/>
<path d="M94.3671 35.866C94.8612 35.866 95.3554 35.7384 95.8554 35.4775C96.3555 35.2224 96.802 34.8803 97.2009 34.4571V32.2249H94.5814C93.7301 32.2249 93.1109 32.3756 92.7418 32.6713C92.3668 32.9728 92.1822 33.4019 92.1822 33.9643C92.1822 34.5614 92.3787 35.0253 92.7716 35.3616C93.1645 35.6978 93.6944 35.8602 94.3671 35.8602M93.3729 36.5617C92.3251 36.5617 91.5035 36.324 90.9022 35.8486C90.3009 35.3732 89.9973 34.7354 89.9973 33.9411C89.9973 33.2279 90.3069 32.6887 90.9201 32.335C91.5333 31.9756 92.4203 31.8016 93.5753 31.8016H97.2009V31.274C97.2009 30.1492 96.9866 29.2911 96.5579 28.7055C96.1293 28.1199 95.4209 27.8185 94.4207 27.8069C93.4443 27.8069 92.6585 28.0504 92.0572 28.5432C92.4561 28.5432 92.7716 28.665 93.0038 28.9027C93.236 29.1404 93.355 29.4361 93.355 29.7898C93.355 30.1434 93.23 30.4449 92.9859 30.6594C92.7418 30.874 92.4382 30.9841 92.075 30.9841C91.7119 30.9841 91.4261 30.8682 91.182 30.642C90.938 30.4159 90.8129 30.1202 90.8129 29.755C90.8129 29.1926 91.1642 28.6823 91.8607 28.2243C92.2477 27.9518 92.6942 27.7547 93.2121 27.6271C93.7301 27.4996 94.254 27.4358 94.7838 27.4358C96.0936 27.4358 97.183 27.7605 98.0403 28.4098C98.9036 29.0592 99.3322 30.0623 99.3322 31.4074V36.382H97.2902V34.9035C96.7961 35.3848 96.2127 35.779 95.528 36.0921C94.8493 36.4052 94.129 36.5559 93.3729 36.5559V36.5617Z" fill="white"/>
<path d="M50.5443 53.5148C51.6874 53.5148 52.628 53.2481 53.3662 52.7089C54.1044 52.1697 54.6462 51.4682 54.9915 50.6101C55.3368 49.7462 55.5035 48.8127 55.5035 47.8039C55.5035 46.795 55.3368 45.879 54.9974 45.0151C54.6581 44.1512 54.1223 43.4554 53.39 42.922C52.6578 42.3886 51.729 42.1219 50.6098 42.1219H48.6809V53.5148H50.5383H50.5443ZM46.502 53.9729V41.6697H50.8717C52.4256 41.6697 53.7175 41.9596 54.7593 42.5394C55.8011 43.1192 56.5691 43.8729 57.0633 44.8064C57.5574 45.7398 57.8015 46.7487 57.8015 47.8387C57.8015 48.9287 57.5574 49.9201 57.0633 50.8536C56.5691 51.7871 55.8011 52.5408 54.7593 53.1148C53.7175 53.6888 52.4196 53.9787 50.8717 53.9787H46.502V53.9729Z" fill="white"/>
<path d="M64.1894 53.4395C64.6835 53.4395 65.1776 53.3119 65.6777 53.051C66.1778 52.7959 66.6243 52.4538 67.0232 52.0306V49.7984H64.4037C63.5524 49.7984 62.9332 49.9491 62.5641 50.2448C62.195 50.5405 62.0045 50.9753 62.0045 51.5377C62.0045 52.1349 62.2009 52.5988 62.5939 52.935C62.9868 53.2713 63.5166 53.4337 64.1894 53.4337M63.1951 54.1352C62.1474 54.1352 61.3258 53.8975 60.7245 53.4221C60.1232 52.9466 59.8196 52.3089 59.8196 51.5146C59.8196 50.8014 60.1292 50.2622 60.7424 49.9085C61.3556 49.5491 62.2426 49.3751 63.3976 49.3751H67.0232V48.8475C67.0232 47.7227 66.8089 46.8646 66.3802 46.279C65.9516 45.6934 65.2431 45.3919 64.2429 45.3803C63.2666 45.3803 62.4807 45.6239 61.8795 46.1167C62.2783 46.1167 62.5939 46.2384 62.826 46.4762C63.0582 46.7139 63.1773 47.0096 63.1773 47.3632C63.1773 47.7169 63.0523 48.0184 62.8082 48.2329C62.5641 48.4475 62.2605 48.5576 61.8973 48.5576C61.5342 48.5576 61.2484 48.4417 61.0043 48.2155C60.7602 47.9894 60.6352 47.6937 60.6352 47.3284C60.6352 46.766 60.9864 46.2558 61.683 45.7978C62.07 45.5311 62.5165 45.3282 63.0344 45.2006C63.5523 45.0731 64.0762 45.0093 64.6061 45.0093C65.9158 45.0093 67.0053 45.334 67.8626 45.9833C68.7258 46.6327 69.1545 47.6299 69.1545 48.9809V53.9555H67.1125V52.477C66.6183 52.9582 66.0349 53.3525 65.3503 53.6656C64.6716 53.9787 63.9512 54.1294 63.1951 54.1294V54.1352Z" fill="white"/>
<path d="M71.7502 53.9671V45.3514L73.8101 44.9629V46.5109C74.3042 46.0297 74.8638 45.6586 75.4889 45.3919C76.114 45.131 76.757 44.9977 77.4178 44.9977C79.4896 44.9977 80.5195 46.0645 80.5195 48.1981V53.9613H78.3704V48.5286C78.3704 47.9198 78.3287 47.4154 78.2513 47.0154C78.1739 46.6153 78.0072 46.2964 77.7572 46.0471C77.5071 45.8036 77.1321 45.676 76.6379 45.676C76.1438 45.676 75.6675 45.7804 75.1734 45.9949C74.6793 46.2036 74.2506 46.5167 73.8934 46.9284V53.9613H71.7443L71.7502 53.9671Z" fill="white"/>
<path fill-rule="evenodd" clip-rule="evenodd" d="M85.5204 53.9671H83.3772V45.3572L85.5204 44.9513V53.9671Z" fill="white"/>
<path d="M100.416 54.1468C99.2489 54.1468 98.1594 53.8975 97.1414 53.3989C96.1234 52.9002 95.3078 52.1697 94.6886 51.2131C94.0695 50.2564 93.7599 49.1142 93.7599 47.8039C93.7599 46.4935 94.0695 45.3571 94.6886 44.3947C95.3078 43.4322 96.1234 42.7075 97.1355 42.2147C98.1475 41.7218 99.2429 41.4725 100.422 41.4609C102.226 41.4609 103.654 41.977 104.702 43.009C104.976 43.2641 105.19 43.5134 105.345 43.7569C105.494 43.9946 105.571 44.2497 105.571 44.5222C105.559 44.8875 105.429 45.189 105.173 45.4383C104.922 45.6818 104.607 45.8094 104.232 45.8094C103.857 45.8094 103.541 45.6818 103.273 45.4325C103.011 45.1774 102.875 44.8701 102.875 44.5106C102.875 44.1512 103.011 43.8207 103.279 43.5714C103.547 43.3221 103.898 43.1945 104.315 43.1945C103.833 42.7713 103.303 42.4698 102.72 42.2784C102.136 42.0929 101.553 42.0001 100.975 42.0001C99.9871 42.0117 99.1239 42.2495 98.3738 42.7191C97.6296 43.1887 97.0462 43.8613 96.6294 44.731C96.2127 45.6065 96.0043 46.6327 96.0043 47.8155C96.0043 48.9982 96.2127 50.0535 96.6354 50.9347C97.0581 51.8218 97.6474 52.4944 98.4154 52.964C99.1775 53.4337 100.059 53.6656 101.059 53.6656C101.553 53.6656 102.035 53.5902 102.511 53.4395C102.988 53.2887 103.41 53.051 103.785 52.7379V47.885H105.988V51.329C105.434 52.3147 104.661 53.0336 103.666 53.48C102.672 53.9323 101.589 54.1584 100.41 54.1584" fill="white"/>
<path d="M106 47.5836H101.011V48.3374H106V47.5836Z" fill="white"/>
<path fill-rule="evenodd" clip-rule="evenodd" d="M82.8531 42.3887L84.4606 40.3304L86.068 42.3887L84.4606 44.4528L82.8531 42.3887Z" fill="white"/>
</g>
<defs>
<clipPath id="clip0_16_3381">
<rect width="106" height="61" fill="white"/>
</clipPath>
</defs>
</svg>
