<svg width="86" height="50" viewBox="0 0 86 50" fill="none" xmlns="http://www.w3.org/2000/svg">
<g clip-path="url(#clip0_11_1030)">
<path d="M22.9425 4.39122C20.575 2.05779 17.3057 0.617812 13.699 0.617812C10.0922 0.617812 6.81815 2.06254 4.45542 4.39122C2.08788 6.71989 0.626845 9.94202 0.626845 13.5016C0.342354 20.9771 0.626845 29.0514 0.626845 36.5935C0.650954 40.1293 2.12645 43.3324 4.48917 45.6468C6.8519 47.9565 10.1067 49.3869 13.699 49.3869C17.2913 49.3869 20.5461 47.9565 22.9088 45.6468C25.2763 43.3324 26.747 40.134 26.7711 36.5935C26.747 28.9136 26.6988 21.1767 26.7711 13.5016C26.7711 9.94202 25.3053 6.71989 22.9425 4.39122ZM13.699 0C17.4842 0 20.9077 1.51126 23.3861 3.954C25.8646 6.39673 27.3979 9.77093 27.3979 13.5016C27.3256 13.6489 27.3979 33.9369 27.3979 36.9024H27.3883C27.2822 40.4904 25.7585 43.7221 23.3476 46.0793C20.8691 48.503 17.46 50 13.699 50C9.9379 50 6.52401 48.503 4.05038 46.0793C1.63944 43.7221 0.115725 40.4857 0.00964377 36.9024H0C0 33.9416 0.0723283 13.6489 0 13.5016C0 9.77569 1.53336 6.39673 4.01181 3.954C6.49026 1.51126 9.91862 0 13.699 0Z" fill="#A53F26"/>
<path d="M4.41202 12.651C4.53739 10.2225 5.62231 8.04117 7.2955 6.47287C8.96388 4.90933 11.2205 3.9541 13.699 3.9541C16.1774 3.9541 18.4148 4.90458 20.0783 6.45386C21.7515 8.01265 22.8413 10.175 22.9811 12.5892L22.3591 12.6225C22.2289 10.3698 21.2115 8.35482 19.6492 6.90059C18.0965 5.45586 15.999 4.57191 13.6941 4.57191C11.3893 4.57191 9.2773 5.46537 7.71983 6.9196C6.15754 8.38334 5.14494 10.4174 5.02922 12.6795L4.4072 12.651H4.41202Z" fill="#A53F26"/>
<path d="M22.9329 38.2235C22.6532 40.5047 21.5249 42.534 19.8613 43.9834C18.2219 45.4187 16.0617 46.2884 13.699 46.2884C11.3362 46.2884 9.15675 45.4092 7.51249 43.9644C5.84894 42.5054 4.72544 40.4619 4.46024 38.1617L5.08226 38.0952C5.32817 40.2385 6.37935 42.1395 7.93199 43.5034C9.46535 44.8531 11.4857 45.6705 13.7038 45.6705C15.9219 45.6705 17.9229 44.8579 19.4563 43.5225C21.0041 42.1728 22.0601 40.2813 22.3205 38.1522L22.9425 38.2235H22.9329Z" fill="#A53F26"/>
<path d="M13.1637 25.145L13.3759 25.1355L13.3904 24.8931C13.3952 24.741 13.4 24.5699 13.4 24.3846C13.4 21.1054 12.0499 18.1399 9.8704 15.9871C7.69091 13.839 4.67723 12.5083 1.35495 12.5083C1.16207 12.5083 1.00295 12.5083 0.872761 12.5131L0.66542 12.5226L0.650954 12.7697C0.646132 12.9218 0.64131 13.0929 0.64131 13.2782C0.64131 16.5574 1.99144 19.5229 4.17093 21.6709C6.35042 23.819 9.3641 25.1497 12.6864 25.1497C12.8648 25.1497 13.0239 25.1497 13.1686 25.1402M13.6942 25.7247C13.5399 25.7343 13.3711 25.7485 13.1927 25.7533C13.0094 25.758 12.8407 25.7628 12.6912 25.7628C9.19051 25.7628 6.02253 24.3656 3.73214 22.1034C1.4321 19.8555 0.0144653 16.7332 0.0144653 13.283C0.0144653 13.1214 0.0144653 12.9408 0.028931 12.7507C0.0385748 12.5606 0.0482185 12.38 0.0626842 12.2184L0.0867936 11.957L0.351997 11.9333C0.520763 11.919 0.679885 11.9095 0.853473 11.9048C1.03188 11.9 1.19101 11.8953 1.35977 11.8953C4.86046 11.8953 8.02844 13.2925 10.3188 15.5546C12.6092 17.8168 14.0317 20.9391 14.0317 24.3846C14.0317 24.5462 14.0317 24.7267 14.0172 24.9168C14.0076 25.1069 13.9979 25.2875 13.9835 25.4491L13.9594 25.7105L13.6942 25.7295V25.7247Z" fill="#A53F26"/>
<path d="M14.1474 25.7579C13.969 25.7532 13.8002 25.7437 13.6459 25.7294L13.3807 25.7104L13.3566 25.449C13.3422 25.2874 13.3325 25.1068 13.3229 24.9167C13.3132 24.7219 13.3084 24.5461 13.3084 24.3797C13.3084 20.9152 14.7309 17.7834 17.0357 15.5117C19.3358 13.2448 22.5182 11.8381 26.0334 11.8381C26.2021 11.8381 26.3613 11.8381 26.5397 11.8476C26.7133 11.8524 26.8724 11.8619 27.046 11.8762L27.3112 11.8999L27.3353 12.1613C27.3497 12.3229 27.3594 12.5035 27.369 12.6936C27.3787 12.8837 27.3835 13.0643 27.3835 13.2258C27.3835 16.6903 25.961 19.8222 23.6562 22.0938C21.3561 24.3607 18.1737 25.7674 14.6585 25.7674C14.5091 25.7674 14.3403 25.7674 14.1522 25.7579M13.9642 25.1353L14.1763 25.1449C14.3162 25.1496 14.4801 25.1544 14.6585 25.1544C18.0001 25.1544 21.0234 23.8189 23.2126 21.6613C25.4017 19.5038 26.7566 16.524 26.7566 13.2306C26.7566 13.0452 26.7566 12.8742 26.747 12.7221L26.7325 12.475L26.5204 12.4655C26.3902 12.4607 26.2311 12.4607 26.0334 12.4607C22.6918 12.4607 19.6685 13.7961 17.4793 15.9537C15.2902 18.1113 13.9353 21.0911 13.9353 24.3845C13.9353 24.5698 13.9353 24.7409 13.9449 24.893L13.9594 25.1401L13.9642 25.1353Z" fill="#A53F26"/>
<path d="M13.1927 25.1258C13.3711 25.1306 13.5398 25.1401 13.6893 25.1543L13.9545 25.1734L13.9786 25.4347C13.9931 25.5963 14.0028 25.7722 14.0124 25.9623C14.022 26.1523 14.0269 26.3282 14.0269 26.4898C14.0269 29.9115 12.6189 33.0101 10.3429 35.2532C8.06701 37.4963 4.92314 38.884 1.45138 38.884C1.28744 38.884 1.12832 38.884 0.949909 38.8745C0.776321 38.8698 0.617199 38.8603 0.453255 38.846L0.188051 38.8222L0.163942 38.5609C0.149476 38.3993 0.139832 38.2234 0.130188 38.0333C0.120545 37.8433 0.115723 37.6674 0.115723 37.5058C0.115723 34.0841 1.52371 30.9855 3.79964 28.7424C6.07557 26.4993 9.21944 25.1116 12.6912 25.1116C12.8407 25.1116 13.0094 25.1116 13.1927 25.1211M13.3759 25.7436L13.1686 25.7341C13.0287 25.7294 12.8696 25.7246 12.6912 25.7246C9.39303 25.7246 6.40346 27.041 4.24326 29.1749C2.08305 31.3087 0.742568 34.2504 0.742568 37.5011C0.742568 37.6864 0.742568 37.8528 0.752211 38.0048L0.766677 38.2472L0.969196 38.2567C1.09939 38.2567 1.25369 38.2615 1.44656 38.2615C4.74473 38.2615 7.7343 36.945 9.8945 34.8112C12.0547 32.6821 13.3952 29.7357 13.3952 26.485C13.3952 26.2997 13.3952 26.1333 13.3855 25.9813L13.3711 25.7436H13.3759Z" fill="#A53F26"/>
<path d="M14.1667 25.7438L13.9594 25.7533L13.9449 25.9957C13.9401 26.1477 13.9353 26.3188 13.9353 26.5042C13.9353 29.7691 15.2806 32.7251 17.4504 34.8684C19.6203 37.007 22.6195 38.3329 25.9369 38.3329C26.1298 38.3329 26.2889 38.3329 26.4191 38.3281L26.6265 38.3186L26.6409 38.0763C26.6457 37.9242 26.6506 37.7531 26.6506 37.5678C26.6506 34.3029 25.3053 31.3469 23.1354 29.2035C20.9656 27.065 17.9664 25.739 14.6489 25.739C14.4705 25.739 14.3114 25.739 14.1715 25.7485M13.6459 25.164C13.8002 25.1545 13.9642 25.145 14.1474 25.1355C14.3306 25.126 14.4994 25.126 14.6489 25.126C18.1351 25.126 21.2886 26.5184 23.5742 28.7711C25.8598 31.0237 27.2726 34.1318 27.2726 37.5678C27.2726 37.7293 27.2726 37.9052 27.2581 38.1C27.2485 38.2901 27.2388 38.466 27.2244 38.6323L27.2003 38.8889L26.9399 38.9127C26.7711 38.9269 26.612 38.9365 26.4384 38.9412C26.26 38.946 26.1009 38.9507 25.9369 38.9507C22.4507 38.9507 19.2972 37.5583 17.0116 35.3056C14.726 33.053 13.3132 29.9449 13.3132 26.5089C13.3132 26.3473 13.3132 26.1715 13.3277 25.9767C13.3373 25.7866 13.347 25.6107 13.3615 25.4444L13.3856 25.183L13.6508 25.164H13.6459Z" fill="#A53F26"/>
<path d="M13.6893 10.0751L12.0017 12.266L13.7134 14.4331L15.4011 12.2422L13.6893 10.0751ZM11.3604 12.0854L13.6845 9.06763L16.1871 12.2375L13.7183 15.4406L11.2157 12.2707L11.3604 12.0806V12.0854Z" fill="#A53F26"/>
<path d="M13.6893 36.1371L12.0017 38.328L13.7134 40.4951L15.4011 38.3042L13.6893 36.1371ZM11.3604 38.1474L13.6845 35.1296L16.1871 38.2995L13.7183 41.5026L11.2157 38.3328L11.3604 38.1427V38.1474Z" fill="#A53F26"/>
<path d="M42.4133 15.4264H40.663V11.1635L37.225 5.3418H39.255L42.1674 10.2985L45.427 5.3418H45.8947L42.4133 10.674V15.4264Z" fill="#A53F26"/>
<path d="M49.974 15.1981C50.49 15.1981 50.9287 15.046 51.2807 14.7371C51.6376 14.4282 51.9028 14.0195 52.086 13.5062C52.2644 12.993 52.356 12.4322 52.356 11.8286C52.356 11.2251 52.2644 10.6643 52.086 10.1511C51.9076 9.63779 51.6376 9.22433 51.2807 8.92018C50.9239 8.61127 50.49 8.4592 49.974 8.4592C49.2218 8.4592 48.648 8.78236 48.243 9.43344C47.8379 10.0798 47.6354 10.8829 47.6354 11.8334C47.6354 12.7839 47.8379 13.5823 48.243 14.2334C48.648 14.8797 49.2266 15.2076 49.974 15.2076M49.9885 15.583C49.188 15.583 48.4744 15.431 47.8476 15.1268C47.2207 14.8227 46.7289 14.3902 46.3721 13.8247C46.0152 13.2591 45.8368 12.5938 45.8368 11.8382C45.8368 11.0825 46.0152 10.4172 46.3721 9.85165C46.7289 9.28611 47.2207 8.84889 47.8476 8.54949C48.4744 8.24534 49.188 8.09326 49.9885 8.09326C50.7889 8.09326 51.4977 8.24534 52.1246 8.54949C52.7466 8.85365 53.2384 9.28611 53.5953 9.85165C53.9521 10.4172 54.1305 11.0825 54.1305 11.8382C54.1305 12.5938 53.9521 13.2591 53.5953 13.8247C53.2384 14.3902 52.7514 14.8274 52.1246 15.1268C51.5026 15.431 50.7889 15.583 49.9885 15.583Z" fill="#A53F26"/>
<path d="M59.4587 15.0508C59.8782 15.0508 60.2639 14.9083 60.6111 14.6279C60.9631 14.3427 61.2331 13.9578 61.4308 13.4683V10.1844C61.2476 9.68536 60.9776 9.29567 60.6256 9.01527C60.2736 8.73488 59.883 8.59706 59.4538 8.59706C59.0247 8.59706 58.61 8.73963 58.2628 9.02953C57.9157 9.31943 57.6505 9.70912 57.4672 10.2034C57.284 10.6976 57.1876 11.2394 57.1876 11.8239C57.1876 12.4085 57.284 12.9645 57.472 13.454C57.6601 13.9435 57.9253 14.3332 58.2677 14.6231C58.61 14.913 59.0054 15.0556 59.4538 15.0556M59.2369 19.5656C58.7884 19.5656 58.3496 19.4991 57.9157 19.3708C57.4817 19.2424 57.0959 19.0476 56.7536 18.7862C56.2569 18.3918 56.0062 17.9783 56.0062 17.5458C56.0158 17.2654 56.1219 17.0278 56.3196 16.833C56.5173 16.6381 56.7681 16.5383 57.0718 16.5383C57.3756 16.5383 57.6119 16.6429 57.8192 16.8472C58.0217 17.0516 58.1278 17.3035 58.1278 17.5886C58.1278 17.8737 58.0266 18.1351 57.8289 18.33C57.6312 18.5248 57.3708 18.6246 57.0477 18.6246C57.3226 18.8242 57.6263 18.9716 57.9591 19.0618C58.2966 19.1521 58.6293 19.1997 58.962 19.1997C59.7817 19.1997 60.3989 18.9525 60.8088 18.463C61.2235 17.9735 61.4308 17.2797 61.4308 16.3862V14.3712C61.1463 14.7277 60.7847 15.0128 60.3411 15.2362C59.8975 15.4548 59.4297 15.5688 58.9283 15.5688C58.2773 15.5688 57.6794 15.412 57.1442 15.0936C56.6089 14.7752 56.1846 14.3332 55.8712 13.7629C55.5578 13.1926 55.4035 12.5463 55.4035 11.8239C55.4035 11.1016 55.5578 10.4553 55.8712 9.88496C56.1846 9.31467 56.6089 8.86795 57.1442 8.55429C57.6794 8.23588 58.2725 8.07905 58.9283 8.07905C59.4635 8.07905 59.9601 8.19311 60.4134 8.42598C60.8667 8.65884 61.2283 8.9725 61.5031 9.37646V8.36895L63.1426 8.05054V16.1771C63.1426 16.9375 62.9593 17.5696 62.5929 18.0733C62.2264 18.5771 61.7491 18.9525 61.1511 19.1949C60.5581 19.442 59.9167 19.5608 59.2369 19.5608V19.5656Z" fill="#A53F26"/>
<path d="M68.1863 14.9937C68.5865 14.9937 68.9867 14.8892 69.3917 14.6753C69.7968 14.4662 70.1584 14.1858 70.4815 13.8389V12.0092H68.3599C67.6703 12.0092 67.1688 12.1328 66.8699 12.3752C66.5709 12.6175 66.4166 12.974 66.4166 13.4349C66.4166 13.9244 66.5758 14.3046 66.894 14.5803C67.2122 14.8559 67.6414 14.989 68.1863 14.989M67.381 15.564C66.5324 15.564 65.8669 15.3692 65.3799 14.9795C64.8929 14.5898 64.647 14.067 64.647 13.4159C64.647 12.8314 64.8977 12.3894 65.3944 12.0995C65.8911 11.8049 66.6095 11.6623 67.545 11.6623H70.4815V11.2298C70.4815 10.3079 70.3079 9.60451 69.9607 9.12452C69.6135 8.64452 69.0397 8.3974 68.2297 8.38789C67.4389 8.38789 66.8024 8.58749 66.3154 8.99145C66.6384 8.99145 66.894 9.09125 67.0821 9.2861C67.2701 9.48095 67.3666 9.72332 67.3666 10.0132C67.3666 10.3031 67.2653 10.5502 67.0676 10.7261C66.8699 10.9019 66.624 10.9922 66.3298 10.9922C66.0357 10.9922 65.8043 10.8972 65.6066 10.7118C65.4089 10.5265 65.3076 10.2841 65.3076 9.9847C65.3076 9.52372 65.5921 9.10551 66.1563 8.73007C66.4697 8.51146 66.8313 8.34512 67.2508 8.24057C67.6703 8.13602 68.0947 8.08374 68.5238 8.08374C69.5846 8.08374 70.467 8.34987 71.1614 8.88214C71.8605 9.41441 72.2077 10.2366 72.2077 11.3391V15.4167H70.5538V14.2048C70.1536 14.5993 69.6811 14.9224 69.1265 15.1791C68.5768 15.4357 67.9934 15.5593 67.381 15.5593V15.564Z" fill="#A53F26"/>
<path d="M74.3438 15.4263V8.36895L75.9977 8.05054V9.31943C76.3883 8.93448 76.803 8.63033 77.2418 8.41172C77.6805 8.19311 78.1097 8.07905 78.5292 8.07905C78.8523 8.07905 79.1078 8.17885 79.2959 8.3737C79.4839 8.56855 79.5804 8.82043 79.5804 9.11507C79.5804 9.40972 79.4791 9.64734 79.2718 9.8517C79.0692 10.0513 78.8185 10.1559 78.5244 10.1559C78.2302 10.1559 77.965 10.056 77.7577 9.8517C77.5503 9.6521 77.4443 9.40497 77.4443 9.11507C77.4443 8.99151 77.4732 8.85369 77.5311 8.71112C76.9862 8.85369 76.4992 9.1721 76.07 9.6616V15.4263H74.3438Z" fill="#A53F26"/>
<path d="M41.3187 29.9781C40.5279 29.9781 39.8288 29.8165 39.2212 29.4933C38.6136 29.1702 38.1411 28.7282 37.8036 28.1626C37.466 27.5971 37.2973 26.9508 37.2973 26.2332C37.2973 25.5156 37.466 24.8692 37.8036 24.3037C38.1411 23.7382 38.6136 23.2914 39.2212 22.973C39.8288 22.6499 40.5279 22.4883 41.3187 22.4883C42.2542 22.4883 43.0305 22.7354 43.6429 23.2249C44.1492 23.6003 44.4047 23.99 44.4047 24.394C44.4047 24.6934 44.3035 24.9405 44.1058 25.1354C43.9081 25.3302 43.6573 25.43 43.3536 25.43C43.0498 25.43 42.8135 25.3302 42.6062 25.1259C42.4036 24.9263 42.2976 24.6744 42.2976 24.375C42.2976 24.1041 42.394 23.8712 42.5821 23.6764C42.7701 23.4815 43.0064 23.3722 43.2909 23.3532C42.8617 23.0443 42.3361 22.8922 41.7141 22.8922C41.1982 22.9017 40.7401 23.0491 40.3399 23.3295C39.9397 23.6146 39.6311 24.0043 39.4189 24.5128C39.2067 25.0166 39.0958 25.5916 39.0958 26.2332C39.0958 26.8747 39.2067 27.4783 39.4334 27.9821C39.6552 28.4858 39.9734 28.8755 40.3785 29.1559C40.7835 29.4363 41.2464 29.5741 41.7768 29.5741C42.2156 29.5741 42.6206 29.4886 42.9967 29.3222C43.3728 29.1559 43.6911 28.8993 43.9563 28.5523H44.3228C44.0286 28.9848 43.6332 29.3317 43.1318 29.5884C42.6303 29.8497 42.0275 29.9781 41.3284 29.9781" fill="#A53F26"/>
<path d="M49.5642 29.6026C50.0801 29.6026 50.5189 29.4506 50.8709 29.1417C51.2277 28.8328 51.4929 28.424 51.6761 27.9108C51.8546 27.3975 51.9462 26.8367 51.9462 26.2332C51.9462 25.6296 51.8546 25.0689 51.6761 24.5556C51.4977 24.0423 51.2277 23.6289 50.8709 23.3247C50.5141 23.0158 50.0801 22.8637 49.5642 22.8637C48.8119 22.8637 48.2381 23.1869 47.8331 23.838C47.4281 24.4891 47.2255 25.2875 47.2255 26.2379C47.2255 27.1884 47.4281 27.9868 47.8331 28.6379C48.2381 29.289 48.8168 29.6121 49.5642 29.6121M49.5786 29.9876C48.7782 29.9876 48.0645 29.8355 47.4377 29.5314C46.8109 29.2272 46.319 28.7947 45.9622 28.2292C45.6054 27.6637 45.427 26.9983 45.427 26.2427C45.427 25.4871 45.6054 24.8217 45.9622 24.2562C46.319 23.6907 46.8109 23.2534 47.4377 22.954C48.0645 22.6499 48.7782 22.4978 49.5786 22.4978C50.3791 22.4978 51.0879 22.6499 51.7147 22.954C52.3367 23.2582 52.8286 23.6907 53.1854 24.2562C53.5422 24.8217 53.7206 25.4871 53.7206 26.2427C53.7206 26.9983 53.5422 27.6637 53.1854 28.2292C52.8286 28.7947 52.3416 29.232 51.7147 29.5314C51.0927 29.8355 50.3791 29.9876 49.5786 29.9876Z" fill="#A53F26"/>
<path d="M55.2781 29.8308V22.7735L56.9465 22.4551V23.6527C57.689 22.8733 58.5136 22.4836 59.4297 22.4836C60.5484 22.4836 61.2813 22.9256 61.6237 23.8095C62.0335 23.3485 62.4482 23.0111 62.8726 22.802C63.2969 22.5929 63.7501 22.4836 64.2371 22.4836C64.999 22.4836 65.5873 22.6879 66.0068 23.0967C66.4263 23.5054 66.6336 24.1754 66.6336 25.1069V29.8308H64.9074V25.3778C64.9074 24.6079 64.8351 24.0281 64.6904 23.6337C64.5457 23.2392 64.2227 23.0444 63.726 23.0444C62.9931 23.0444 62.3277 23.4151 61.7249 24.1517C61.7924 24.4131 61.8262 24.7267 61.8262 25.1022V29.8261H60.1V25.3731C60.1 24.6032 60.0276 24.0234 59.883 23.6289C59.7383 23.2345 59.4153 23.0396 58.9186 23.0396C58.2484 23.0396 57.6119 23.3723 57.0188 24.0329V29.8261H55.2781V29.8308Z" fill="#A53F26"/>
<path d="M76.4317 29.3983C76.8319 29.3983 77.2321 29.2937 77.6372 29.0799C78.0422 28.8708 78.4039 28.5904 78.7269 28.2434V26.4138H76.6053C75.9158 26.4138 75.4143 26.5373 75.1153 26.7797C74.8116 27.0268 74.6621 27.3785 74.6621 27.8395C74.6621 28.329 74.8212 28.7092 75.1394 28.9848C75.4577 29.2605 75.8868 29.3935 76.4317 29.3935M75.6264 29.9686C74.7778 29.9686 74.1124 29.7737 73.6254 29.384C73.1384 28.9943 72.8924 28.4716 72.8924 27.8205C72.8924 27.2359 73.1432 26.794 73.6398 26.5041C74.1365 26.2094 74.8549 26.0668 75.7904 26.0668H78.7269V25.6344C78.7269 24.7124 78.5533 24.009 78.2062 23.5291C77.859 23.0491 77.2852 22.8019 76.4751 22.7924C75.6843 22.7924 75.0478 22.992 74.5608 23.396C74.8839 23.396 75.1394 23.4958 75.3275 23.6906C75.5155 23.8855 75.612 24.1279 75.612 24.4178C75.612 24.7077 75.5107 24.9548 75.313 25.1306C75.1153 25.3065 74.8694 25.3967 74.5753 25.3967C74.2811 25.3967 74.0497 25.3017 73.852 25.1164C73.6543 24.931 73.553 24.6886 73.553 24.3892C73.553 23.9283 73.8375 23.51 74.4017 23.1346C74.7151 22.9112 75.0768 22.7497 75.4963 22.6451C75.9158 22.5406 76.3401 22.4883 76.7692 22.4883C77.8301 22.4883 78.7125 22.7544 79.4068 23.2867C80.106 23.819 80.4532 24.6411 80.4532 25.7437V29.8212H78.7992V28.6094C78.399 29.0038 77.9265 29.327 77.372 29.5836C76.8223 29.8402 76.2388 29.9638 75.6264 29.9638V29.9686Z" fill="#A53F26"/>
<path d="M40.9378 43.8647C41.8636 43.8647 42.6255 43.6461 43.2234 43.2041C43.8213 42.7621 44.2601 42.1871 44.5398 41.4837C44.8194 40.7756 44.9544 40.0105 44.9544 39.1836C44.9544 38.3566 44.8194 37.6058 44.5446 36.8977C44.2697 36.1895 43.8358 35.6193 43.2427 35.182C42.6496 34.7448 41.8974 34.5262 40.9908 34.5262H39.4286V43.8647H40.933H40.9378ZM37.6637 44.2401V34.1555H41.203C42.4615 34.1555 43.5079 34.3931 44.3517 34.8684C45.1955 35.3436 45.8175 35.9614 46.2178 36.7266C46.618 37.4917 46.8157 38.3186 46.8157 39.2121C46.8157 40.1055 46.618 40.9182 46.2178 41.6833C45.8175 42.4485 45.1955 43.0663 44.3517 43.5368C43.5079 44.0072 42.4567 44.2449 41.203 44.2449H37.6637V44.2401Z" fill="#A53F26"/>
<path d="M51.9896 43.8028C52.3898 43.8028 52.79 43.6983 53.195 43.4844C53.6001 43.2753 53.9617 42.9949 54.2848 42.648V40.8183H52.1632C51.4736 40.8183 50.9721 40.9419 50.6732 41.1842C50.3742 41.4266 50.2199 41.783 50.2199 42.244C50.2199 42.7335 50.3791 43.1137 50.6973 43.3894C51.0155 43.665 51.4447 43.7981 51.9896 43.7981M51.1843 44.3731C50.3357 44.3731 49.6702 44.1783 49.1832 43.7886C48.6962 43.3989 48.4503 42.8761 48.4503 42.225C48.4503 41.6405 48.701 41.1985 49.1977 40.9086C49.6943 40.614 50.4128 40.4714 51.3483 40.4714H54.2848V40.0389C54.2848 39.1169 54.1112 38.4136 53.764 37.9336C53.4168 37.4536 52.843 37.2065 52.033 37.197C51.2422 37.197 50.6057 37.3966 50.1187 37.8005C50.4417 37.8005 50.6973 37.9003 50.8854 38.0952C51.0734 38.29 51.1698 38.5324 51.1698 38.8223C51.1698 39.1122 51.0686 39.3593 50.8709 39.5352C50.6732 39.711 50.4273 39.8013 50.1331 39.8013C49.839 39.8013 49.6076 39.7062 49.4099 39.5209C49.2122 39.3356 49.1109 39.0932 49.1109 38.7938C49.1109 38.3328 49.3954 37.9146 49.9596 37.5391C50.273 37.3205 50.6346 37.1542 51.0541 37.0497C51.4736 36.9451 51.8979 36.8928 52.3271 36.8928C53.3879 36.8928 54.2703 37.159 54.9647 37.6912C55.6638 38.2235 56.011 39.0409 56.011 40.1482V44.2258H54.3571V43.0139C53.9569 43.4084 53.4843 43.7315 52.9298 43.9882C52.3801 44.2448 51.7967 44.3683 51.1843 44.3683V44.3731Z" fill="#A53F26"/>
<path d="M58.1134 44.2355V37.1734L59.7817 36.855V38.1239C60.1819 37.7294 60.6352 37.4253 61.1415 37.2067C61.6478 36.9928 62.1686 36.8835 62.7038 36.8835C64.3818 36.8835 65.216 37.7579 65.216 39.5068V44.2307H63.4753V39.7777C63.4753 39.2787 63.4415 38.8652 63.3789 38.5373C63.3162 38.2094 63.1812 37.948 62.9786 37.7437C62.7761 37.5441 62.4723 37.4395 62.0721 37.4395C61.6719 37.4395 61.2862 37.5251 60.8859 37.7009C60.4857 37.872 60.1385 38.1286 59.8492 38.466V44.2307H58.1085L58.1134 44.2355Z" fill="#A53F26"/>
<path fill-rule="evenodd" clip-rule="evenodd" d="M69.2664 44.2354H67.5305V37.1781L69.2664 36.8455V44.2354Z" fill="#A53F26"/>
<path d="M81.3307 44.3826C80.3857 44.3826 79.5032 44.1783 78.6787 43.7696C77.8542 43.3609 77.1936 42.7621 76.6921 41.9779C76.1906 41.1938 75.9399 40.2575 75.9399 39.1835C75.9399 38.1095 76.1906 37.178 76.6921 36.3891C77.1936 35.6002 77.8542 35.0061 78.6739 34.6022C79.4936 34.1982 80.3808 33.9939 81.3356 33.9844C82.7966 33.9844 83.9538 34.4073 84.8025 35.2533C85.0243 35.4624 85.1979 35.6667 85.3233 35.8663C85.4438 36.0612 85.5065 36.2703 85.5065 36.4936C85.4969 36.793 85.3908 37.0402 85.1834 37.2445C84.9809 37.4441 84.7254 37.5487 84.4216 37.5487C84.1178 37.5487 83.8622 37.4441 83.6452 37.2398C83.4331 37.0307 83.3222 36.7788 83.3222 36.4841C83.3222 36.1895 83.4331 35.9186 83.6501 35.7142C83.8671 35.5099 84.1515 35.4053 84.4891 35.4053C84.0985 35.0584 83.6694 34.8113 83.1968 34.6545C82.7243 34.5024 82.2517 34.4263 81.784 34.4263C80.9836 34.4359 80.2844 34.6307 79.6768 35.0156C79.0741 35.4006 78.6016 35.9519 78.264 36.6647C77.9265 37.3823 77.7577 38.2235 77.7577 39.193C77.7577 40.1625 77.9265 41.0274 78.2689 41.7498C78.6112 42.4769 79.0886 43.0282 79.7106 43.4131C80.3278 43.7981 81.0414 43.9882 81.8515 43.9882C82.2517 43.9882 82.6423 43.9264 83.028 43.8028C83.4138 43.6793 83.7562 43.4844 84.0599 43.2278V39.25H85.844V42.073C85.3956 42.8809 84.7688 43.4702 83.9635 43.8361C83.1582 44.2068 82.2807 44.3921 81.3259 44.3921" fill="#A53F26"/>
<path d="M85.8537 39.0029H81.8129V39.6207H85.8537V39.0029Z" fill="#A53F26"/>
<path fill-rule="evenodd" clip-rule="evenodd" d="M67.1062 34.7447L68.4081 33.0576L69.71 34.7447L68.4081 36.4366L67.1062 34.7447Z" fill="#A53F26"/>
</g>
<defs>
<clipPath id="clip0_11_1030">
<rect width="85.8537" height="50" fill="white"/>
</clipPath>
</defs>
</svg>
