<svg width="107" height="242" viewBox="0 0 107 242" fill="none" xmlns="http://www.w3.org/2000/svg">
<path d="M120.027 1.00009C104.386 16.5374 94.8212 38.1505 95.1316 61.9314C95.442 85.7124 105.567 107.067 121.612 122.19C137.248 106.653 146.813 85.0399 146.503 61.259C146.192 37.478 136.068 16.1236 120.027 1.00009Z" stroke="#CA806E" stroke-width="0.705387" stroke-miterlimit="22.93"/>
<path d="M71.3882 11.8865C63.3233 32.4039 63.2622 56.0391 73.1188 77.685C82.9754 99.331 100.841 114.807 121.612 122.195C129.677 101.678 129.733 78.0424 119.877 56.3965C110.02 34.7505 92.1549 19.2743 71.3882 11.8865Z" stroke="#CA806E" stroke-width="0.705387" stroke-miterlimit="22.93"/>
<path d="M31.2376 41.4282C32.1123 63.4598 41.5692 85.1199 59.3026 100.968C77.036 116.815 99.6178 123.794 121.607 122.195C120.732 100.168 111.271 78.5081 93.5374 62.6604C75.804 46.8127 53.2222 39.8341 31.2376 41.4282Z" stroke="#CA806E" stroke-width="0.705387" stroke-miterlimit="22.93"/>
<path d="M6.37505 84.6261C16.0389 104.443 33.4149 120.464 56.0296 127.833C78.6443 135.207 102.12 132.503 121.607 122.195C111.939 102.383 94.5626 86.3614 71.9525 78.9877C49.3425 71.6141 25.8625 74.318 6.37505 84.6261Z" stroke="#CA806E" stroke-width="0.705387" stroke-miterlimit="22.93"/>
<path d="M1 134.177C17.8211 148.426 40.1772 156.101 63.8453 153.749C87.5134 151.398 107.918 139.477 121.612 122.195C104.791 107.951 82.4346 100.276 58.7665 102.628C35.0984 104.979 14.6939 116.9 1 134.182V134.177Z" stroke="#CA806E" stroke-width="0.705387" stroke-miterlimit="22.93"/>
<path d="M16.0201 181.706C37.1535 187.979 60.7087 186.009 81.4283 174.333C102.148 162.656 116.03 143.526 121.607 122.2C100.474 115.927 76.9185 117.902 56.2036 129.578C35.484 141.255 21.602 160.385 16.0201 181.711V181.706Z" stroke="#CA806E" stroke-width="0.705387" stroke-miterlimit="22.93"/>
<path d="M48.9005 219.167C70.7722 216.407 91.5435 205.12 105.811 186.094C120.079 167.067 125.092 143.968 121.612 122.195C99.7401 124.96 78.9735 136.242 64.7059 155.273C50.4383 174.3 45.4253 197.399 48.9005 219.167Z" stroke="#CA806E" stroke-width="0.705387" stroke-miterlimit="22.93"/>
<path d="M94.0735 240.23C112.987 228.897 127.457 210.209 132.86 187.048C138.264 163.888 133.556 140.723 121.607 122.195C102.698 133.528 88.2282 152.216 82.8249 175.377C77.4217 198.537 82.1289 221.702 94.0735 240.23Z" stroke="#CA806E" stroke-width="0.705387" stroke-miterlimit="22.93"/>
<path d="M143.907 241.33C156.66 223.348 162.383 200.413 158.01 177.037C153.636 153.66 140.004 134.351 121.612 122.195C108.863 140.178 103.135 163.112 107.513 186.489C111.887 209.865 125.52 229.174 143.911 241.33H143.907Z" stroke="#CA806E" stroke-width="0.705387" stroke-miterlimit="22.93"/>
</svg>
