<svg width="123" height="242" viewBox="0 0 123 242" fill="none" xmlns="http://www.w3.org/2000/svg">
<path d="M0.0270608 1.00006C-15.6137 16.5374 -25.1788 38.1505 -24.8684 61.9314C-24.558 85.7124 -14.4334 107.067 1.61183 122.19C17.2479 106.653 26.813 85.0399 26.5026 61.2589C26.1922 37.478 16.0676 16.1236 0.0270608 1.00006Z" stroke="#CA806E" stroke-width="0.705387" stroke-miterlimit="22.93"/>
<path d="M-48.6118 11.8865C-56.6767 32.4039 -56.7378 56.0391 -46.8812 77.6851C-37.0246 99.331 -19.1595 114.807 1.61182 122.195C9.67675 101.678 9.73318 78.0425 -0.123428 56.3965C-9.98004 34.7505 -27.8451 19.2743 -48.6118 11.8865Z" stroke="#CA806E" stroke-width="0.705387" stroke-miterlimit="22.93"/>
<path d="M-88.7624 41.4282C-87.8877 63.4598 -78.4308 85.1199 -60.6974 100.968C-42.9639 116.815 -20.3821 123.794 1.60713 122.195C0.73245 100.168 -8.72915 78.5081 -26.4626 62.6604C-44.196 46.8127 -66.7778 39.834 -88.7624 41.4282Z" stroke="#CA806E" stroke-width="0.705387" stroke-miterlimit="22.93"/>
<path d="M-113.625 84.6261C-103.961 104.443 -86.5851 120.464 -63.9704 127.833C-41.3557 135.207 -17.8804 132.503 1.60713 122.195C-8.06138 102.383 -25.4374 86.3614 -48.0474 78.9877C-70.6575 71.6141 -94.1374 74.318 -113.625 84.6261Z" stroke="#CA806E" stroke-width="0.705387" stroke-miterlimit="22.93"/>
<path d="M-119 134.177C-102.179 148.426 -79.8228 156.101 -56.1547 153.749C-32.4866 151.398 -12.0821 139.477 1.61182 122.195C-15.2093 107.951 -37.5654 100.276 -61.2335 102.628C-84.9016 104.979 -105.306 116.9 -119 134.182V134.177Z" stroke="#CA806E" stroke-width="0.705387" stroke-miterlimit="22.93"/>
<path d="M-103.98 181.706C-82.8465 187.979 -59.2913 186.009 -38.5717 174.333C-17.8522 162.656 -3.97013 143.526 1.60713 122.2C-19.5263 115.927 -43.0815 117.902 -63.7964 129.578C-84.516 141.255 -98.398 160.385 -103.98 181.711V181.706Z" stroke="#CA806E" stroke-width="0.705387" stroke-miterlimit="22.93"/>
<path d="M-71.0995 219.167C-49.2278 216.407 -28.4565 205.12 -14.1889 186.094C0.078775 167.067 5.09172 143.968 1.61181 122.195C-20.2599 124.96 -41.0265 136.242 -55.2941 155.273C-69.5618 174.3 -74.5747 197.399 -71.0995 219.167Z" stroke="#CA806E" stroke-width="0.705387" stroke-miterlimit="22.93"/>
<path d="M-25.9265 240.23C-7.01272 228.897 7.45713 210.209 12.8604 187.048C18.2637 163.888 13.5564 140.723 1.60712 122.195C-17.302 133.528 -31.7718 152.216 -37.1751 175.377C-42.5783 198.537 -37.8711 221.702 -25.9265 240.23Z" stroke="#CA806E" stroke-width="0.705387" stroke-miterlimit="22.93"/>
<path d="M23.9068 241.33C36.6602 223.348 42.3832 200.413 38.0098 177.037C33.6364 153.66 20.0036 134.351 1.61181 122.195C-11.1369 140.178 -16.8646 163.112 -12.4865 186.489C-8.11313 209.865 5.51966 229.174 23.9115 241.33H23.9068Z" stroke="#CA806E" stroke-width="0.705387" stroke-miterlimit="22.93"/>
<path d="M69.9686 222.28C74.4031 200.686 70.42 177.389 57.0035 157.747C43.5918 138.109 23.3424 125.915 1.61182 122.19C-2.82272 143.785 1.16508 167.081 14.5815 186.719C27.9933 206.357 48.2426 218.551 69.9733 222.275L69.9686 222.28Z" stroke="#CA806E" stroke-width="0.705387" stroke-miterlimit="22.93"/>
<path d="M104.467 186.31C99.8346 164.753 86.8085 145.031 66.625 132.451C46.4415 119.872 22.9992 116.862 1.60712 122.195C6.23916 143.747 19.2653 163.47 39.4488 176.049C59.6323 188.628 83.0746 191.638 104.467 186.305V186.31Z" stroke="#CA806E" stroke-width="0.705387" stroke-miterlimit="22.93"/>
<path d="M121.57 139.491C108.657 121.621 88.793 108.811 65.2565 105.416C41.7154 102.021 19.0443 108.703 1.60712 122.195C14.5204 140.06 34.3841 152.87 57.9252 156.265C81.4664 159.66 104.137 152.978 121.57 139.491Z" stroke="#CA806E" stroke-width="0.705387" stroke-miterlimit="22.93"/>
<path d="M118.391 89.7472C99.3785 78.588 76.0396 74.8494 53.1239 81.2167C30.2082 87.584 12.1409 102.82 1.61182 122.19C20.6244 133.35 43.9633 137.083 66.879 130.716C89.7946 124.349 107.862 109.112 118.391 89.7425V89.7472Z" stroke="#CA806E" stroke-width="0.705387" stroke-miterlimit="22.93"/>
<path d="M95.4565 45.496C73.5613 42.9283 50.6927 48.9053 32.2774 63.9536C13.8621 79.0066 3.45523 100.225 1.61182 122.195C23.507 124.758 46.3757 118.786 64.791 103.733C83.2063 88.6798 93.6131 67.4617 95.4613 45.496H95.4565Z" stroke="#CA806E" stroke-width="0.705387" stroke-miterlimit="22.93"/>
<path d="M56.6508 14.2097C35.5739 20.6757 17.041 35.3431 6.23915 56.5329C-4.56268 77.7227 -5.54551 101.339 1.60712 122.19C22.6841 115.724 41.2123 101.052 52.0141 79.8624C62.8159 58.6726 63.7988 35.0562 56.6508 14.205V14.2097Z" stroke="#CA806E" stroke-width="0.705387" stroke-miterlimit="22.93"/>
</svg>
