<svg width="74" height="73" viewBox="0 0 74 73" fill="none" xmlns="http://www.w3.org/2000/svg">
<path d="M61.7181 11.6713C55.3267 5.34085 46.5047 1.43171 36.7545 1.43171C27.0043 1.43171 18.1753 5.34786 11.7909 11.6713C5.39945 18.0017 1.44552 26.7463 1.44552 36.4034C1.44552 46.0604 5.39945 54.8051 11.7838 61.1285C18.1753 67.4589 27.0043 71.368 36.7474 71.368C46.4906 71.368 55.3267 67.4519 61.7111 61.1285C68.1025 54.7981 72.0494 46.0604 72.0494 36.4034C72.0494 26.7463 68.0954 18.0017 61.7111 11.6783M36.7545 0C46.9015 0 56.0919 4.07757 62.7456 10.6606C69.3993 17.2507 73.5091 26.3463 73.5091 36.4034C73.5091 46.4604 69.3922 55.556 62.7456 62.1461C56.0919 68.7362 46.9086 72.8067 36.7545 72.8067C26.6004 72.8067 17.4171 68.7292 10.7635 62.1461C4.1169 55.556 0 46.4534 0 36.4034C0 26.3533 4.1169 17.2507 10.7635 10.6606C17.4171 4.07757 26.6004 0 36.7545 0Z" fill="#F5EFD5"/>
<path d="M35.9892 35.6314C35.5357 35.4419 35.1105 35.3296 34.7208 35.2875C33.7996 35.1752 33.0485 35.4349 32.4462 35.8911C31.8156 36.3683 31.3338 37.0772 31.0149 37.8211C30.774 38.3755 30.6181 38.951 30.5543 39.4704C30.4268 40.509 30.7456 41.5056 31.3621 42.2706C31.9857 43.0426 32.9139 43.583 33.9981 43.7164H34.0335C36.386 43.9971 38.6251 43.3374 40.347 42.046C42.0689 40.7547 43.2735 38.8317 43.564 36.5789V36.5438C43.8474 34.2699 43.153 32.0942 41.7925 30.4169C40.432 28.7325 38.4055 27.5535 36.0459 27.2587H35.9963C32.3754 26.8236 28.9175 27.8412 26.2603 29.8344C23.603 31.8275 21.7395 34.7962 21.293 38.2773V38.3264C20.8537 41.8285 21.9308 45.1832 24.0211 47.7729C26.1185 50.3626 29.2363 52.1943 32.8785 52.6365H32.9493C37.8457 53.226 42.5153 51.8505 46.1078 49.1555C49.7004 46.4605 52.2159 42.4461 52.8253 37.7439V37.6807C53.4205 32.9434 51.9679 28.4097 49.1335 24.9146C46.2992 21.4125 42.0831 18.9421 37.1654 18.3386H37.0804C30.9157 17.5946 25.0344 19.3281 20.5065 22.7249C15.9786 26.1217 12.8041 31.1819 12.0389 37.1122V37.1965C11.2878 43.1619 13.123 48.8747 16.6872 53.2822C20.2585 57.6966 25.5658 60.8057 31.766 61.5636H31.8723C39.3125 62.462 46.4055 60.3705 51.8687 56.2719C57.3319 52.1733 61.1583 46.0675 62.0795 38.9159V38.8177C62.1503 38.3334 62.1999 37.8632 62.2353 37.4C62.7455 30.6695 60.9032 24.1356 56.8997 19.0544C52.8961 13.9733 46.7243 10.3238 38.5755 9.34826C38.0299 9.2851 37.4772 9.22895 36.9174 9.18684L37.0166 7.7832C37.6048 7.82531 38.1787 7.88146 38.7385 7.94462C47.3054 8.96928 53.8031 12.8223 58.0334 18.1912C62.2566 23.5601 64.2052 30.4309 63.6667 37.4982C63.6313 38.0036 63.5817 38.5018 63.5179 38.9861L63.5037 39.0844C62.533 46.6289 58.494 53.0716 52.7332 57.3878C46.9794 61.704 39.518 63.9007 31.6881 62.9673L31.5818 62.9532C24.9919 62.1391 19.3515 58.8336 15.5535 54.1454C11.7554 49.4502 9.79972 43.3655 10.5933 37.014V36.9298C11.4224 30.6064 14.8024 25.2164 19.6208 21.595C24.4392 17.9806 30.6889 16.1419 37.2434 16.9209L37.3284 16.9349C42.6358 17.5876 47.1849 20.2545 50.246 24.0373C53.3071 27.8202 54.8873 32.7259 54.2425 37.8421V37.9053C53.5764 43.0005 50.8483 47.3518 46.9652 50.2643C43.0822 53.1769 38.0441 54.6647 32.758 54.0331H32.6872C28.6553 53.5278 25.2045 51.4995 22.8803 48.6291C20.5561 45.7516 19.3586 42.032 19.8404 38.1439V38.0948C20.3506 34.2207 22.4197 30.9222 25.3674 28.7044C28.3152 26.4937 32.1416 25.3638 36.1522 25.841H36.2018C38.9511 26.1849 41.3107 27.5675 42.8979 29.5326C44.4852 31.4977 45.3071 34.0383 44.9741 36.6982V36.7333C44.6269 39.3791 43.2097 41.639 41.1973 43.1479C39.1849 44.6568 36.5702 45.4288 33.8351 45.0989H33.7997C32.3258 44.9095 31.0645 44.1725 30.2142 43.1198C29.3639 42.0671 28.9246 40.6985 29.1017 39.2738C29.1796 38.6352 29.371 37.9264 29.6686 37.2386C30.0796 36.2981 30.7031 35.3928 31.5463 34.7471C32.425 34.0804 33.5375 33.7014 34.8696 33.8628C35.3869 33.926 35.9467 34.0734 36.5277 34.312L35.9608 35.6103L35.9892 35.6314Z" fill="#F5EFD5"/>
<path d="M37.4773 0.71582H36.0317V36.4033H37.4773V0.71582Z" fill="#F5EFD5"/>
<path fill-rule="evenodd" clip-rule="evenodd" d="M33.9274 37.7367L36.783 34.0171L39.6811 37.7016L36.8255 41.4213L33.9274 37.7367Z" fill="#F5EFD5"/>
</svg>
