<svg width="77" height="77" viewBox="0 0 77 77" fill="none" xmlns="http://www.w3.org/2000/svg">
<path d="M64.6466 12.317C57.9519 5.63634 48.7113 1.51092 38.4985 1.51092C28.2857 1.51092 19.0377 5.64374 12.3504 12.317C5.65565 18.9976 1.51411 28.2261 1.51411 38.4175C1.51411 48.6088 5.65565 57.8373 12.343 64.5105C19.0377 71.1912 28.2857 75.3166 38.4911 75.3166C48.6965 75.3166 57.9519 71.1838 64.6392 64.5105C71.3339 57.8299 75.4681 48.6088 75.4681 38.4175C75.4681 28.2261 71.3265 18.9976 64.6392 12.3244M38.4985 0C49.127 0 58.7535 4.30317 65.7228 11.2505C72.6922 18.2052 76.997 27.804 76.997 38.4175C76.997 49.031 72.6848 58.6298 65.7228 65.5845C58.7535 72.5392 49.1344 76.8349 38.4985 76.8349C27.8626 76.8349 18.2436 72.5318 11.2742 65.5845C4.31225 58.6298 0 49.0236 0 38.4175C0 27.8114 4.31225 18.2052 11.2742 11.2505C18.2436 4.30317 27.8626 0 38.4985 0Z" fill="#F5EFD5"/>
<path d="M37.6969 37.6027C37.2219 37.4027 36.7766 37.2842 36.3683 37.2398C35.4035 37.1213 34.6167 37.3953 33.9858 37.8767C33.3253 38.3804 32.8206 39.1284 32.4866 39.9135C32.2342 40.4986 32.0709 41.106 32.0041 41.6541C31.8705 42.7502 32.2045 43.8019 32.8503 44.6092C33.5034 45.424 34.4757 45.9943 35.6113 46.135H35.6484C38.1125 46.4312 40.4579 45.735 42.2615 44.3722C44.0651 43.0094 45.3268 40.9801 45.6311 38.6026V38.5655C45.928 36.1658 45.2007 33.8698 43.7756 32.0997C42.3506 30.3221 40.2278 29.0778 37.7563 28.7668H37.7043C33.9116 28.3076 30.2896 29.3815 27.5063 31.4849C24.723 33.5884 22.771 36.7213 22.3034 40.395V40.4468C21.8433 44.1426 22.9714 47.6829 25.1609 50.4159C27.3579 53.1489 30.6236 55.082 34.4386 55.5486H34.5128C39.6415 56.1708 44.5327 54.7191 48.2957 51.875C52.0587 49.0309 54.6935 44.7944 55.3318 39.8321V39.7654C55.9553 34.766 54.4338 29.9814 51.4649 26.293C48.4961 22.5972 44.0799 19.9901 38.929 19.3531H38.8399C32.3827 18.568 26.2223 20.3974 21.4796 23.9822C16.7368 27.5669 13.4117 32.907 12.6102 39.1655V39.2543C11.8234 45.5499 13.7457 51.5788 17.4791 56.23C21.2198 60.8887 26.779 64.1698 33.2733 64.9697H33.3847C41.1779 65.9177 48.6074 63.7106 54.3299 59.3852C60.0523 55.0598 64.0603 48.6162 65.0251 41.0689V40.9652C65.0994 40.4542 65.1513 39.958 65.1884 39.4691C65.7228 32.3663 63.7931 25.4709 59.5996 20.1086C55.4061 14.7463 48.9414 10.8949 40.406 9.86539C39.8345 9.79873 39.2555 9.73948 38.6692 9.69504L38.7731 8.21375C39.3891 8.25818 39.9903 8.31744 40.5767 8.38409C49.55 9.46544 56.3561 13.5316 60.7871 19.1976C65.2107 24.8635 67.2518 32.1145 66.6877 39.5728C66.6506 40.1061 66.5986 40.632 66.5318 41.143L66.517 41.2467C65.5001 49.2087 61.2695 56.0078 55.2354 60.5628C49.2086 65.1178 41.3931 67.4361 33.1917 66.451L33.0803 66.4362C26.1778 65.577 20.2698 62.0886 16.2915 57.141C12.3133 52.1861 10.2648 45.7647 11.096 39.0618V38.9729C11.9644 32.2997 15.5048 26.6115 20.5518 22.7897C25.5989 18.9754 32.1452 17.0349 39.0106 17.857L39.0997 17.8718C44.6588 18.5606 49.4238 21.3751 52.6302 25.3672C55.8366 29.3593 57.4917 34.5364 56.8163 39.9357V40.0024C56.1186 45.3795 53.2611 49.9715 49.1938 53.0452C45.1264 56.1189 39.8493 57.6891 34.3124 57.0225H34.2382C30.015 56.4893 26.4004 54.3488 23.966 51.3195C21.5315 48.2829 20.2772 44.3574 20.7819 40.2542V40.2024C21.3163 36.114 23.4835 32.6329 26.5711 30.2925C29.6587 27.9595 33.6667 26.767 37.8676 27.2706H37.9196C40.7993 27.6336 43.2709 29.0926 44.9335 31.1665C46.596 33.2403 47.457 35.9214 47.1081 38.7285V38.7655C46.7445 41.5578 45.26 43.9427 43.1522 45.5351C41.0443 47.1274 38.3055 47.9422 35.4406 47.5941H35.4035C33.8597 47.3941 32.5385 46.6164 31.6479 45.5054C30.7572 44.3945 30.2971 42.9502 30.4826 41.4467C30.5642 40.7727 30.7646 40.0246 31.0764 39.2988C31.5069 38.3063 32.16 37.3509 33.0432 36.6695C33.9636 35.9659 35.1288 35.5659 36.5242 35.7363C37.066 35.8029 37.6524 35.9585 38.261 36.2103L37.6672 37.5805L37.6969 37.6027Z" fill="#F5EFD5"/>
<path d="M39.2555 0.755493H37.7414V38.4175H39.2555V0.755493Z" fill="#F5EFD5"/>
<path fill-rule="evenodd" clip-rule="evenodd" d="M35.5372 39.8247L38.5283 35.8993L41.5639 39.7877L38.5728 43.7131L35.5372 39.8247Z" fill="#F5EFD5"/>
</svg>
