<svg width="77" height="77" viewBox="0 0 77 77" fill="none" xmlns="http://www.w3.org/2000/svg">
<path d="M43.7377 33.2274C42.3998 31.891 40.5477 31.061 38.5056 31.061C36.4634 31.061 34.6113 31.891 33.2734 33.2274C31.9354 34.5638 31.1044 36.4137 31.1044 38.4535C31.1044 40.4933 31.9354 42.3431 33.2734 43.6796C34.6113 45.016 36.4634 45.846 38.5056 45.846C40.5477 45.846 42.3998 45.016 43.7377 43.6796C45.0757 42.3431 45.9067 40.4933 45.9067 38.4535C45.9067 36.4137 45.0757 34.5638 43.7377 33.2274ZM38.5056 30.7585C40.6322 30.7585 42.5617 31.6167 43.956 33.0164C45.3504 34.4091 46.2165 36.3363 46.2165 38.4605C46.2165 40.5847 45.3574 42.5119 43.956 43.9046C42.5617 45.2973 40.6322 46.1625 38.5056 46.1625C36.3789 46.1625 34.4494 45.2973 33.0551 43.9046C31.6607 42.5119 30.7946 40.5847 30.7946 38.4605C30.7946 36.3363 31.6537 34.4091 33.0551 33.0164C34.4494 31.6237 36.3789 30.7585 38.5056 30.7585Z" fill="#F5EFD5"/>
<path d="M43.1181 33.8393C42.5125 33.2344 41.7942 32.749 40.9985 32.4185C40.2309 32.1019 39.3858 31.9261 38.4985 31.9261C37.6113 31.9261 36.7662 32.1019 35.9986 32.4185C35.2029 32.749 34.4846 33.2344 33.879 33.8393C33.2734 34.4442 32.7875 35.1616 32.4565 35.9564C32.1396 36.7231 31.9636 37.5672 31.9636 38.4534C31.9636 39.3397 32.1396 40.1908 32.4565 40.9504C32.7875 41.7452 33.2734 42.4627 33.879 43.0676C34.4776 43.6725 35.1959 44.1578 35.9986 44.4884C36.7662 44.8049 37.6113 44.9807 38.4985 44.9807C39.3858 44.9807 40.2309 44.8049 40.9985 44.4884C41.7942 44.1578 42.5195 43.6725 43.1181 43.0676C43.7237 42.4627 44.2096 41.7452 44.5406 40.9504C44.8575 40.1837 45.0335 39.3397 45.0335 38.4534C45.0335 37.5672 44.8575 36.7231 44.5406 35.9564C44.2096 35.1616 43.7237 34.4371 43.1181 33.8393ZM38.4985 29.8863C39.6605 29.8863 40.7661 30.1184 41.7801 30.5404C42.8294 30.9765 43.773 31.6096 44.5617 32.3974C45.3504 33.1781 45.9842 34.1206 46.4208 35.1757C46.8433 36.1886 47.0757 37.2929 47.0757 38.4534C47.0757 39.614 46.8433 40.7183 46.4208 41.7312C45.9842 42.7862 45.3434 43.7287 44.5617 44.5095C43.773 45.2973 42.8294 45.9303 41.7801 46.3664C40.7661 46.7884 39.6605 47.0205 38.4985 47.0205C37.3366 47.0205 36.231 46.7884 35.217 46.3664C34.1677 45.9303 33.2171 45.2902 32.4354 44.5095C31.6467 43.7217 31.0129 42.7792 30.5763 41.7241C30.1538 40.7113 29.9214 39.607 29.9214 38.4464C29.9214 37.2858 30.1538 36.1815 30.5763 35.1687C31.0129 34.1206 31.6537 33.1711 32.4354 32.3903C33.2241 31.6025 34.1677 30.9695 35.224 30.5334C36.2381 30.1114 37.3437 29.8793 38.5056 29.8793L38.4985 29.8863Z" fill="#F5EFD5"/>
<path d="M64.6524 12.3302C57.9625 5.64811 48.7094 1.51226 38.4985 1.51226C28.2876 1.51226 19.0415 5.64811 12.3446 12.3302C5.65471 19.0193 1.51403 28.2546 1.51403 38.4535C1.51403 48.6525 5.65471 57.8948 12.3446 64.5769C19.0345 71.266 28.2876 75.3948 38.4985 75.3948C48.7094 75.3948 57.9625 71.259 64.6524 64.5769C71.3423 57.8948 75.483 48.6525 75.483 38.4535C75.483 28.2546 71.3423 19.0122 64.6524 12.3302ZM38.4985 0C49.1319 0 58.7583 4.30466 65.7228 11.261C72.6873 18.2174 76.997 27.8326 76.997 38.4535C76.997 49.0745 72.6873 58.6897 65.7228 65.646C58.7583 72.6024 49.1319 76.9071 38.4985 76.9071C27.8651 76.9071 18.2387 72.6024 11.2742 65.646C4.30969 58.6897 0 49.0745 0 38.4535C0 27.8326 4.30969 18.2245 11.2742 11.261C18.2458 4.30466 27.8651 0 38.4985 0Z" fill="#F5EFD5"/>
<path d="M37.7591 75.6268L37.7873 75.0008V74.3748C37.7873 66.6377 33.71 59.632 27.1046 54.5607C20.4992 49.4894 11.3799 46.3523 1.30983 46.3523V45.2058C11.7953 45.2058 21.2879 48.4695 28.1609 53.7448C35.0339 59.0201 39.2802 66.3141 39.2802 74.3678L39.2661 75.0149C39.2661 75.247 39.252 75.465 39.2379 75.662L37.7521 75.6127L37.7591 75.6268Z" fill="#F5EFD5"/>
<path d="M38.0689 75.0149L38.0548 75.3455L38.9632 75.3736C38.9773 75.043 38.9844 74.7054 38.9914 74.3748C38.9914 70.4711 37.9774 66.7502 36.1464 63.36C34.2381 59.829 31.4424 56.6498 27.9777 53.984C24.506 51.3182 20.3513 49.1658 15.7388 47.6958C11.3798 46.3101 6.60533 45.5294 1.59144 45.5013V46.064C6.45745 46.0921 11.0981 46.8517 15.3374 48.2022C19.8372 49.6301 23.8864 51.7332 27.2735 54.3357C30.6678 56.9452 33.4071 60.0611 35.2732 63.5217C37.076 66.8628 38.0689 70.5274 38.0689 74.3748V75.0079V75.0149ZM37.4633 75.6128L37.4915 74.9938V74.3819C37.4915 70.6329 36.5267 67.0597 34.7662 63.8031C32.9353 60.4128 30.2523 57.3531 26.9214 54.7999C23.5835 52.2396 19.5978 50.1717 15.1613 48.7649C10.8939 47.4074 6.21098 46.6548 1.29568 46.6548H1.00696V44.9315H1.29568C6.46449 44.9315 11.4009 45.7193 15.9078 47.1542C20.5907 48.6453 24.8018 50.8258 28.3298 53.5338C31.8649 56.2488 34.7099 59.4914 36.6535 63.0927C38.5266 66.5744 39.5618 70.3867 39.5618 74.3819C39.5477 74.9164 39.5336 75.4369 39.5055 75.9715L37.4422 75.9012L37.4562 75.6128H37.4633Z" fill="#F5EFD5"/>
<path d="M37.7943 75.6761C37.7802 75.4722 37.7732 75.2611 37.7661 75.029L37.7521 74.3819C37.7521 66.3353 41.9984 59.0483 48.8643 53.773C55.7302 48.4977 65.2158 45.227 75.6943 45.22V46.3594C65.6313 46.3665 56.5189 49.5035 49.9206 54.5749C43.3293 59.6462 39.245 66.6448 39.245 74.3749V75.0009L39.2802 75.6199L37.7943 75.6691V75.6761Z" fill="#F5EFD5"/>
<path d="M38.0689 75.3455V75.3736L38.9773 75.3455C38.9632 75.0219 38.9632 74.7054 38.9562 74.3819C38.9562 70.5414 39.9491 66.8768 41.7519 63.5358C43.618 60.0752 46.3503 56.9592 49.7445 54.3497C53.1317 51.7472 57.1738 49.6512 61.6666 48.2163C65.9059 46.8658 70.5395 46.1062 75.4055 46.078V45.5153C70.3986 45.5435 65.6312 46.3242 61.2722 47.7169C56.6668 49.1869 52.512 51.3393 49.0474 54.0051C45.5827 56.6709 42.7941 59.8501 40.8857 63.3811C39.0548 66.7713 38.0478 70.4922 38.0478 74.3889L38.0689 75.3595V75.3455ZM37.5056 75.6831C37.4844 75.247 37.4774 74.8179 37.4703 74.3819C37.4703 70.3867 38.5055 66.5744 40.3787 63.0997C42.3223 59.4984 45.1672 56.2559 48.6953 53.5408C52.2163 50.8328 56.4274 48.6524 61.1032 47.1612C65.6031 45.7263 70.5324 44.9386 75.7013 44.9315H75.99V46.6478H75.7013C70.793 46.6478 66.1171 47.4004 61.8497 48.7649C57.4273 50.1787 53.4416 52.2396 50.1037 54.8069C46.7728 57.3672 44.0968 60.4198 42.2659 63.8101C40.5125 67.0667 39.5407 70.6399 39.5407 74.3819V74.9938L39.5829 75.9082L37.5196 75.9785L37.5056 75.6901V75.6831Z" fill="#F5EFD5"/>
<path d="M27.4567 30.0622C30.865 28.2756 34.5902 27.2909 38.4985 27.2909C42.4068 27.2909 46.139 28.2756 49.5403 30.0622C53.0543 31.905 56.2232 34.606 58.885 37.9611L59.2794 38.4535L58.885 38.9458C56.2232 42.3009 53.0613 45.0019 49.5403 46.8447C46.132 48.6313 42.4068 49.616 38.4985 49.616C34.5902 49.616 30.8579 48.6313 27.4567 46.8447C23.9427 45.0019 20.7738 42.3009 18.112 38.9458L17.7176 38.4535L18.112 37.9611C20.7738 34.606 23.9357 31.905 27.4567 30.0622ZM38.4985 28.8946C34.8507 28.8946 31.372 29.816 28.1961 31.476C25.0483 33.1289 22.1963 35.5063 19.7598 38.4535C22.1893 41.4006 25.0483 43.785 28.1961 45.4309C31.372 47.0979 34.8507 48.0123 38.4985 48.0123C42.1462 48.0123 45.625 47.0909 48.8009 45.4309C51.9487 43.778 54.8007 41.4006 57.2372 38.4535C54.8077 35.5063 51.9487 33.1219 48.8009 31.476C45.625 29.809 42.1462 28.8946 38.4985 28.8946Z" fill="#F5EFD5"/>
<path fill-rule="evenodd" clip-rule="evenodd" d="M35.2029 38.4746L38.4774 34.1699L41.8012 38.4324L38.5267 42.7441L35.2029 38.4746Z" fill="#F5EFD5"/>
<path d="M38.4985 8.58118C55.0189 8.58118 68.4058 21.9594 68.4058 38.4535C68.4058 41.5765 67.9269 44.594 67.0326 47.4216C66.61 47.3653 66.2016 47.3583 65.8073 47.3934C66.7298 44.5799 67.2297 41.5765 67.2297 38.4535C67.2297 22.6065 54.364 9.75581 38.4985 9.75581C22.6329 9.75581 9.76717 22.6065 9.76717 38.4535C9.76717 41.4499 10.2249 44.3338 11.077 47.0488C10.6545 46.9503 10.2249 46.894 9.80238 46.894C9.01368 44.2142 8.59116 41.3866 8.59116 38.4535C8.59116 21.9523 21.978 8.58118 38.4985 8.58118Z" fill="#F5EFD5"/>
<path d="M58.6245 18.351C47.5263 7.26577 29.4636 7.26577 18.3655 18.351C10.7883 25.9263 8.09826 37.1592 11.4432 47.33C11.2319 47.2597 11.0277 47.1964 10.8235 47.1472C6.32368 32.8475 13.5276 17.4295 27.4074 11.683C34.4494 8.77099 42.5476 8.77099 49.5896 11.683C63.4553 17.4225 70.6099 32.7983 66.2157 46.9995C66.0256 46.9784 65.8425 46.9713 65.6524 46.9713C68.7086 37.1944 66.3707 26.074 58.6245 18.3439M38.4985 8.30676C55.1598 8.30676 68.6734 21.8045 68.6734 38.4464C68.6734 41.4991 68.2156 44.4462 67.3706 47.2245C67.2016 47.1683 67.0256 47.1261 66.8495 47.0909C67.6945 44.3196 68.1311 41.4076 68.1311 38.4464C68.1311 22.0929 54.8641 8.84133 38.4914 8.84133C22.1188 8.84133 8.85879 22.1 8.85879 38.4534C8.85879 41.4357 9.29539 44.3055 10.1193 47.0206C9.92917 46.9995 9.73904 46.9924 9.55595 46.9924C8.7602 44.2844 8.33064 41.4217 8.33064 38.4605C8.33064 21.8186 21.8442 8.32083 38.5055 8.32083L38.4985 8.30676Z" fill="#F5EFD5"/>
</svg>
