<svg width="21" height="20" viewBox="0 0 21 20" fill="none" xmlns="http://www.w3.org/2000/svg">
<path d="M20.98 9.40996C20.64 3.60996 15.37 -0.860039 9.3 0.139962C5.12 0.829962 1.77 4.21996 1.12 8.39996C0.739998 10.82 1.24 13.11 2.33 15L1.44 18.31C1.24 19.06 1.93 19.74 2.67 19.53L5.93 18.63C7.41 19.5 9.14 20 10.99 20C16.63 20 21.31 15.03 20.98 9.40996ZM15.88 13.72C15.6388 14.2147 15.2268 14.6054 14.72 14.82C14.42 14.95 14.09 15.01 13.74 15.01C13.23 15.01 12.68 14.89 12.11 14.64C11.5025 14.3732 10.9258 14.0413 10.39 13.65C9.81 13.23 9.27 12.76 8.75 12.25C8.23 11.73 7.77 11.18 7.35 10.61C6.94 10.04 6.61 9.46996 6.37 8.89996C6.13 8.32996 6.01 7.77996 6.01 7.25996C6.01 6.91996 6.07 6.58996 6.19 6.28996C6.31 5.97996 6.5 5.69996 6.77 5.44996C7.09 5.12996 7.44 4.97996 7.81 4.97996C7.95 4.97996 8.09 5.00996 8.22 5.06996C8.35 5.12996 8.47 5.21996 8.56 5.34996L9.72 6.98996C9.81 7.11996 9.88 7.22996 9.92 7.33996C9.97 7.44996 9.99 7.54996 9.99 7.64996C9.99 7.76996 9.95 7.88996 9.88 8.00996C9.81 8.12996 9.72 8.24996 9.6 8.36996L9.22 8.76996C9.16 8.82996 9.14 8.88996 9.14 8.96996C9.14 9.00996 9.15 9.04996 9.16 9.08996C9.18 9.12996 9.19 9.15996 9.2 9.18996C9.29 9.35996 9.45 9.56996 9.67 9.82996C10.1382 10.3801 10.6498 10.8918 11.2 11.36C11.46 11.58 11.68 11.73 11.85 11.82C11.88 11.83 11.91 11.85 11.94 11.86C11.98 11.88 12.02 11.88 12.07 11.88C12.16 11.88 12.22 11.85 12.28 11.79L12.66 11.41C12.79 11.28 12.91 11.19 13.02 11.13C13.14 11.06 13.25 11.02 13.38 11.02C13.48 11.02 13.58 11.04 13.69 11.09C13.8 11.14 13.92 11.2 14.04 11.29L15.7 12.47C15.83 12.56 15.92 12.67 15.98 12.79C16.03 12.92 16.06 13.04 16.06 13.18C16 13.35 15.96 13.54 15.88 13.72Z" fill="#F2B0A7"/>
</svg>
