<svg width="24" height="24" viewBox="0 0 24 24" fill="none" xmlns="http://www.w3.org/2000/svg">
<path d="M21.9801 11.41C21.6401 5.60996 16.3701 1.13996 10.3001 2.13996C6.12005 2.82996 2.77005 6.21996 2.12005 10.4C1.74005 12.82 2.24005 15.11 3.33005 17L2.44005 20.31C2.24005 21.06 2.93005 21.74 3.67005 21.53L6.93005 20.63C8.41005 21.5 10.1401 22 11.9901 22C17.6301 22 22.3101 17.03 21.9801 11.41ZM16.8801 15.72C16.6389 16.2147 16.2269 16.6054 15.7201 16.82C15.4201 16.95 15.0901 17.01 14.7401 17.01C14.2301 17.01 13.6801 16.89 13.1101 16.64C12.5026 16.3732 11.9258 16.0413 11.3901 15.65C10.8101 15.23 10.2701 14.76 9.75005 14.25C9.23005 13.73 8.77005 13.18 8.35005 12.61C7.94005 12.04 7.61005 11.47 7.37005 10.9C7.13005 10.33 7.01005 9.77996 7.01005 9.25996C7.01005 8.91996 7.07005 8.58996 7.19005 8.28996C7.31005 7.97996 7.50005 7.69996 7.77005 7.44996C8.09005 7.12996 8.44005 6.97996 8.81005 6.97996C8.95005 6.97996 9.09005 7.00996 9.22005 7.06996C9.35005 7.12996 9.47005 7.21996 9.56005 7.34996L10.7201 8.98996C10.8101 9.11996 10.8801 9.22996 10.9201 9.33996C10.9701 9.44996 10.9901 9.54996 10.9901 9.64996C10.9901 9.76996 10.9501 9.88996 10.8801 10.01C10.8101 10.13 10.7201 10.25 10.6001 10.37L10.2201 10.77C10.1601 10.83 10.1401 10.89 10.1401 10.97C10.1401 11.01 10.1501 11.05 10.1601 11.09C10.1801 11.13 10.1901 11.16 10.2001 11.19C10.2901 11.36 10.4501 11.57 10.6701 11.83C11.1382 12.3801 11.6499 12.8918 12.2001 13.36C12.4601 13.58 12.6801 13.73 12.8501 13.82C12.8801 13.83 12.9101 13.85 12.9401 13.86C12.9801 13.88 13.0201 13.88 13.0701 13.88C13.1601 13.88 13.2201 13.85 13.2801 13.79L13.6601 13.41C13.7901 13.28 13.9101 13.19 14.0201 13.13C14.1401 13.06 14.2501 13.02 14.3801 13.02C14.4801 13.02 14.5801 13.04 14.6901 13.09C14.8001 13.14 14.9201 13.2 15.0401 13.29L16.7001 14.47C16.8301 14.56 16.9201 14.67 16.9801 14.79C17.0301 14.92 17.0601 15.04 17.0601 15.18C17.0001 15.35 16.9601 15.54 16.8801 15.72Z" fill="white"/>
</svg>
