<svg width="77" height="78" viewBox="0 0 77 78" fill="none" xmlns="http://www.w3.org/2000/svg">
<path d="M64.6508 12.6465C57.9558 5.94721 48.7098 1.80826 38.4985 1.80826C28.2872 1.80826 19.0334 5.94721 12.3462 12.6465C5.659 19.3458 1.51482 28.5975 1.51482 38.8153C1.51482 49.0331 5.65116 58.2849 12.3462 64.9841C19.0413 71.6834 28.2872 75.8224 38.4985 75.8224C48.7098 75.8224 57.9558 71.6834 64.6508 64.9841C71.3459 58.2849 75.4822 49.0331 75.4822 38.8153C75.4822 28.5975 71.3459 19.3458 64.6508 12.6465ZM38.4985 0.29248C49.1258 0.29248 58.7563 4.60421 65.7183 11.5784C72.688 18.5525 76.997 28.1813 76.997 38.8153C76.997 49.4493 72.688 59.0859 65.7183 66.0523C58.7563 73.0264 49.1258 77.3381 38.4985 77.3381C27.8712 77.3381 18.2407 73.0264 11.2788 66.0523C4.30901 59.0781 0 49.4493 0 38.8153C0 28.1813 4.30901 18.5447 11.2788 11.5784C18.2407 4.60421 27.8633 0.29248 38.4985 0.29248Z" fill="#F5EFD5"/>
<path d="M37.7451 76.5448L37.7765 75.7202V74.8955C37.7765 64.6777 33.6401 55.426 26.9529 48.7267C20.2579 42.0274 11.012 37.8885 0.800629 37.8885V36.3727C11.4279 36.3727 21.0585 40.6844 28.0204 47.6586C34.9901 54.6327 39.2991 64.2615 39.2991 74.8955L39.2834 75.7516C39.2834 76.0579 39.2677 76.3406 39.252 76.6076L37.7451 76.5448Z" fill="#F5EFD5"/>
<path d="M37.7764 76.6077C37.7685 76.3407 37.7528 76.058 37.7528 75.7517L37.7371 74.9035C37.7371 64.2773 42.0383 54.6485 49.0002 47.6822C55.9621 40.7081 65.5769 36.3963 76.1964 36.3885V37.8964C65.9929 37.9043 56.7549 42.0511 50.0677 48.7504C43.3804 55.4496 39.252 64.6935 39.252 74.9113V75.736L39.2834 76.5606L37.7764 76.6235V76.6077Z" fill="#F5EFD5"/>
<path d="M8.13924 37.7C8.35116 29.4457 11.8203 22.0317 17.3067 16.6754C22.793 11.3191 30.2886 8.02838 38.5378 8.02838C46.7869 8.02838 54.3453 11.3505 59.8395 16.7461C65.3258 22.1338 68.7871 29.6027 68.9441 37.8963L67.4371 37.9199C67.288 30.0425 63.9994 22.9506 58.7799 17.8221C53.5604 12.7014 46.4101 9.54416 38.5378 9.54416C30.6654 9.54416 23.57 12.67 18.3584 17.7592C13.1468 22.8485 9.84243 29.8933 9.64621 37.7393L8.13924 37.7Z" fill="#F5EFD5"/>
<path d="M37.4232 36.1293L38.2159 36.734C38.9616 36.1607 39.6601 35.6502 40.3351 35.1632C43.5139 32.8542 46.1982 30.8986 46.8104 27.121C46.8889 26.6262 46.9281 26.1314 46.9281 25.6444C46.9281 23.6967 46.2924 21.9375 45.1779 20.5945C44.0712 19.2515 42.4779 18.3169 40.5863 18.0106C40.1468 17.9399 39.6837 17.9006 39.197 17.9006H39.1343C38.4279 17.8378 37.7372 17.8692 37.0622 17.9791C35.2569 18.2776 33.593 19.1494 32.3372 20.4138C31.0892 21.6704 30.2572 23.3197 30.1003 25.1889C30.0453 25.8172 30.0689 26.4769 30.1866 27.1445C30.8459 31.1185 33.9148 33.4511 37.4389 36.1214M37.8863 38.3597L37.7686 38.2733C37.2034 37.8414 36.8659 37.5822 36.5206 37.323C32.7453 34.4564 29.4488 31.951 28.6953 27.388C28.5619 26.5869 28.5305 25.8094 28.5933 25.0633C28.7817 22.8171 29.7785 20.8458 31.2697 19.3457C32.7453 17.8535 34.7075 16.8325 36.8267 16.4869C37.6116 16.3534 38.42 16.322 39.2284 16.3848C39.77 16.3848 40.3037 16.432 40.8296 16.5183C43.1058 16.8875 45.013 18.0106 46.3473 19.6284C47.6816 21.2385 48.4508 23.3354 48.4508 25.6444C48.4508 26.1942 48.4037 26.7675 48.3095 27.3566C47.6031 31.7547 44.6912 33.8752 41.2377 36.3884C40.3979 37.001 39.5188 37.6372 38.7104 38.2812L38.6005 38.3754L38.2473 37.9278L37.902 38.3754L37.8863 38.3597Z" fill="#F5EFD5"/>
<path d="M46.5043 46.2842C48.2075 49.6299 49.1415 53.2898 49.1415 57.1303C49.1415 60.9708 48.1997 64.6307 46.5043 67.9764C44.7462 71.432 42.1718 74.5421 38.9694 77.1575L38.4907 77.5502L38.0119 77.1575C34.8096 74.5421 32.2351 71.4242 30.477 67.9764C28.7738 64.6307 27.8398 60.9708 27.8398 57.1303C27.8398 53.2898 28.7738 49.6299 30.477 46.2842C32.2351 42.8286 34.8096 39.7185 38.0119 37.1031L38.4907 36.7104L38.9694 37.1031C42.1718 39.7185 44.7462 42.8364 46.5043 46.2842ZM47.6267 57.1303C47.6267 53.5333 46.7476 50.109 45.1543 46.9754C43.5767 43.8731 41.3084 41.0693 38.4907 38.6739C35.6808 41.0693 33.4046 43.881 31.827 46.9754C30.2337 50.109 29.3546 53.5411 29.3546 57.1303C29.3546 60.7195 30.2337 64.1516 31.827 67.2852C33.4046 70.3796 35.6729 73.1913 38.4907 75.5867C41.3005 73.1913 43.5767 70.3796 45.1543 67.2852C46.7476 64.1516 47.6267 60.7195 47.6267 57.1303Z" fill="#F5EFD5"/>
<path fill-rule="evenodd" clip-rule="evenodd" d="M35.1549 49.8577L38.475 45.4832L41.8421 49.8106L38.522 54.193L35.1549 49.8577Z" fill="#F5EFD5"/>
</svg>
